ISO-10303-21;
HEADER;
FILE_DESCRIPTION (( 'STEP AP214' ),
    '1' );
FILE_NAME ('Rail Rail.STEP',
    '2026-02-17T16:08:39',
    ( '' ),
    ( '' ),
    'SwSTEP 2.0',
    'SolidWorks 2025',
    '' );
FILE_SCHEMA (( 'AUTOMOTIVE_DESIGN' ));
ENDSEC;

DATA;
#1 = CIRCLE ( 'NONE', #835, 2.000000000000000000 ) ;
#2 = ORIENTED_EDGE ( 'NONE', *, *, #96, .T. ) ;
#3 = LINE ( 'NONE', #236, #247 ) ;
#4 = EDGE_CURVE ( 'NONE', #732, #327, #497, .T. ) ;
#5 = CARTESIAN_POINT ( 'NONE',  ( 27.50000000000000000, -2.949999999999999734, 1.699999999999999956 ) ) ;
#6 = ORIENTED_EDGE ( 'NONE', *, *, #925, .T. ) ;
#7 = VERTEX_POINT ( 'NONE', #201 ) ;
#8 = ORIENTED_EDGE ( 'NONE', *, *, #893, .F. ) ;
#9 = ADVANCED_FACE ( 'NONE', ( #667 ), #743, .F. ) ;
#10 = VERTEX_POINT ( 'NONE', #505 ) ;
#11 = CARTESIAN_POINT ( 'NONE',  ( 67.50000000000000000, 3.250000000000000000, -1.217594537993936087E-15 ) ) ;
#12 = ORIENTED_EDGE ( 'NONE', *, *, #914, .T. ) ;
#13 = STYLED_ITEM ( 'NONE', ( #734 ), #169 ) ;
#14 = ORIENTED_EDGE ( 'NONE', *, *, #270, .T. ) ;
#15 = VECTOR ( 'NONE', #682, 999.9999999999998863 ) ;
#16 = CIRCLE ( 'NONE', #266, 1.699999999999999956 ) ;
#17 = FACE_OUTER_BOUND ( 'NONE', #239, .T. ) ;
#18 = ORIENTED_EDGE ( 'NONE', *, *, #60, .T. ) ;
#19 = PRODUCT_DEFINITION ( 'UNKNOWN', '', #413, #999 ) ;
#20 = DIRECTION ( 'NONE',  ( 0.000000000000000000, -1.000000000000000000, 0.000000000000000000 ) ) ;
#21 = CARTESIAN_POINT ( 'NONE',  ( 27.50000000000000000, 3.250000000000000000, 3.680992658595479897E-15 ) ) ;
#22 = DIRECTION ( 'NONE',  ( 0.000000000000000000, 1.000000000000000000, 1.275531967630004013E-16 ) ) ;
#23 = ORIENTED_EDGE ( 'NONE', *, *, #1026, .F. ) ;
#24 = CARTESIAN_POINT ( 'NONE',  ( 95.00000000000000000, -3.250000000000000000, -4.500000000000000000 ) ) ;
#25 = DIRECTION ( 'NONE',  ( 0.000000000000000000, 1.000000000000000000, 2.168404344971005170E-16 ) ) ;
#26 = EDGE_CURVE ( 'NONE', #199, #65, #355, .T. ) ;
#27 = CARTESIAN_POINT ( 'NONE',  ( 27.50000000000000000, -3.250000000000000000, 2.000000000000000000 ) ) ;
#28 = VERTEX_POINT ( 'NONE', #842 ) ;
#29 = CARTESIAN_POINT ( 'NONE',  ( 47.50000000000000000, 0.8499999999999999778, 1.000402596837195884E-15 ) ) ;
#30 = VECTOR ( 'NONE', #139, 1000.000000000000000 ) ;
#31 = DIRECTION ( 'NONE',  ( 0.000000000000000000, 1.000000000000000000, 4.956352788505160310E-16 ) ) ;
#32 = VERTEX_POINT ( 'NONE', #414 ) ;
#33 = CIRCLE ( 'NONE', #48, 3.250000000000000000 ) ;
#34 = ADVANCED_FACE ( 'NONE', ( #259 ), #328, .F. ) ;
#35 = DIRECTION ( 'NONE',  ( 0.000000000000000000, -1.000802005371234881E-16, 1.000000000000000000 ) ) ;
#36 = DIRECTION ( 'NONE',  ( 0.000000000000000000, 1.000000000000000000, -2.668805347656624706E-16 ) ) ;
#37 = ORIENTED_EDGE ( 'NONE', *, *, #50, .T. ) ;
#38 = ADVANCED_FACE ( 'NONE', ( #349, #755, #901, #672 ), #181, .F. ) ;
#39 = CARTESIAN_POINT ( 'NONE',  ( 27.50000000000000000, -3.250000000000000000, 3.054564736714965084E-15 ) ) ;
#40 = CYLINDRICAL_SURFACE ( 'NONE', #563, 0.7499999999999997780 ) ;
#41 = DIRECTION ( 'NONE',  ( 0.000000000000000000, -1.275531967630005245E-16, 1.000000000000000000 ) ) ;
#42 = ORIENTED_EDGE ( 'NONE', *, *, #203, .T. ) ;
#43 = DIRECTION ( 'NONE',  ( 0.000000000000000000, 1.000000000000000000, 9.637352644315598941E-17 ) ) ;
#44 = CARTESIAN_POINT ( 'NONE',  ( 95.00000000000000000, -3.250000000000000000, -4.500000000000000000 ) ) ;
#45 = CIRCLE ( 'NONE', #296, 3.250000000000000000 ) ;
#46 = CARTESIAN_POINT ( 'NONE',  ( 75.00000000000000000, 2.750000000000000000, 4.500000000000000000 ) ) ;
#47 = CONICAL_SURFACE ( 'NONE', #62, 2.000000000000000000, 0.7853981633974602694 ) ;
#48 = AXIS2_PLACEMENT_3D ( 'NONE', #357, #679, #503 ) ;
#49 = LINE ( 'NONE', #366, #265 ) ;
#50 = EDGE_CURVE ( 'NONE', #976, #780, #916, .T. ) ;
#51 = DIRECTION ( 'NONE',  ( 0.000000000000000000, 1.000000000000000000, 2.168404344971005170E-16 ) ) ;
#52 = DIRECTION ( 'NONE',  ( 0.000000000000000000, -1.000000000000000000, -4.956352788505160310E-16 ) ) ;
#53 = FACE_OUTER_BOUND ( 'NONE', #663, .T. ) ;
#54 = DIRECTION ( 'NONE',  ( 0.000000000000000000, -1.000000000000000000, 2.668805347656630130E-16 ) ) ;
#55 = LINE ( 'NONE', #155, #100 ) ;
#56 = PLANE ( 'NONE',  #1016 ) ;
#57 = ORIENTED_EDGE ( 'NONE', *, *, #1026, .T. ) ;
#58 = DIRECTION ( 'NONE',  ( 0.000000000000000000, -1.000000000000000000, -4.956352788505160310E-16 ) ) ;
#59 = LINE ( 'NONE', #558, #849 ) ;
#60 = EDGE_CURVE ( 'NONE', #65, #794, #159, .T. ) ;
#61 = ORIENTED_EDGE ( 'NONE', *, *, #71, .F. ) ;
#62 = AXIS2_PLACEMENT_3D ( 'NONE', #843, #773, #765 ) ;
#63 = AXIS2_PLACEMENT_3D ( 'NONE', #985, #431, #184 ) ;
#64 = DIRECTION ( 'NONE',  ( 0.000000000000000000, -1.275531967630005245E-16, 1.000000000000000000 ) ) ;
#65 = VERTEX_POINT ( 'NONE', #703 ) ;
#66 = LINE ( 'NONE', #798, #753 ) ;
#67 = CARTESIAN_POINT ( 'NONE',  ( 67.50000000000000000, -3.250000000000000000, 2.000000000000000000 ) ) ;
#68 = DIRECTION ( 'NONE',  ( 8.659560562355021605E-17, -0.7071067811865394681, 0.7071067811865555663 ) ) ;
#69 = ORIENTED_EDGE ( 'NONE', *, *, #874, .T. ) ;
#70 = DIRECTION ( 'NONE',  ( 0.000000000000000000, 1.000000000000000000, 1.275531967630004013E-16 ) ) ;
#71 = EDGE_CURVE ( 'NONE', #241, #28, #390, .T. ) ;
#72 = EDGE_LOOP ( 'NONE', ( #18, #508, #486, #1027, #670, #884, #8, #649, #730, #856, #833 ) ) ;
#73 = DIRECTION ( 'NONE',  ( 0.000000000000000000, 0.000000000000000000, 1.000000000000000000 ) ) ;
#74 = SHAPE_DEFINITION_REPRESENTATION ( #90, #609 ) ;
#75 = EDGE_LOOP ( 'NONE', ( #348, #579, #175, #80 ) ) ;
#76 = DIRECTION ( 'NONE',  ( 0.000000000000000000, 0.000000000000000000, 1.000000000000000000 ) ) ;
#77 = ORIENTED_EDGE ( 'NONE', *, *, #751, .F. ) ;
#78 = DIRECTION ( 'NONE',  ( -1.000000000000000000, 0.000000000000000000, 0.000000000000000000 ) ) ;
#79 = DIRECTION ( 'NONE',  ( 0.000000000000000000, -1.000000000000000000, 0.000000000000000000 ) ) ;
#80 = ORIENTED_EDGE ( 'NONE', *, *, #331, .F. ) ;
#81 = VECTOR ( 'NONE', #872, 1000.000000000000114 ) ;
#82 = AXIS2_PLACEMENT_3D ( 'NONE', #438, #533, #523 ) ;
#83 = CIRCLE ( 'NONE', #63, 1.699999999999999956 ) ;
#84 = VERTEX_POINT ( 'NONE', #225 ) ;
#85 = CARTESIAN_POINT ( 'NONE',  ( 95.00000000000000000, 1.500000000000000000, -4.500000000000000000 ) ) ;
#86 = ORIENTED_EDGE ( 'NONE', *, *, #26, .F. ) ;
#87 = ORIENTED_EDGE ( 'NONE', *, *, #419, .F. ) ;
#88 = CARTESIAN_POINT ( 'NONE',  ( 67.50000000000000000, 0.8499999999999999778, -1.448891001457510038E-15 ) ) ;
#89 = EDGE_LOOP ( 'NONE', ( #891, #1012 ) ) ;
#90 = PRODUCT_DEFINITION_SHAPE ( 'NONE', 'NONE',  #19 ) ;
#91 = VERTEX_POINT ( 'NONE', #5 ) ;
#92 = CARTESIAN_POINT ( 'NONE',  ( 95.00000000000000000, 1.500000000000000000, 4.500000000000000000 ) ) ;
#93 = CARTESIAN_POINT ( 'NONE',  ( 20.00000000000000000, 1.500000000000000000, 4.500000000000000000 ) ) ;
#94 = ORIENTED_EDGE ( 'NONE', *, *, #664, .F. ) ;
#95 = EDGE_CURVE ( 'NONE', #534, #873, #713, .T. ) ;
#96 = EDGE_CURVE ( 'NONE', #780, #245, #59, .T. ) ;
#97 =( GEOMETRIC_REPRESENTATION_CONTEXT ( 3 ) GLOBAL_UNCERTAINTY_ASSIGNED_CONTEXT ( ( #949 ) ) GLOBAL_UNIT_ASSIGNED_CONTEXT ( ( #818, #748, #577 ) ) REPRESENTATION_CONTEXT ( 'NONE', 'WORKASPACE' ) );
#98 = VERTEX_POINT ( 'NONE', #400 ) ;
#99 = AXIS2_PLACEMENT_3D ( 'NONE', #287, #846, #759 ) ;
#100 = VECTOR ( 'NONE', #286, 1000.000000000000000 ) ;
#101 = DIRECTION ( 'NONE',  ( -1.000000000000000000, 0.000000000000000000, 0.000000000000000000 ) ) ;
#102 = DIRECTION ( 'NONE',  ( 0.000000000000000000, 0.000000000000000000, -1.000000000000000000 ) ) ;
#103 = EDGE_LOOP ( 'NONE', ( #636, #1030, #149, #971 ) ) ;
#104 = EDGE_CURVE ( 'NONE', #98, #195, #323, .T. ) ;
#105 = FACE_OUTER_BOUND ( 'NONE', #272, .T. ) ;
#106 = LINE ( 'NONE', #515, #822 ) ;
#107 = ORIENTED_EDGE ( 'NONE', *, *, #845, .T. ) ;
#108 = FILL_AREA_STYLE ('',( #260 ) ) ;
#109 = LINE ( 'NONE', #585, #650 ) ;
#110 = ORIENTED_EDGE ( 'NONE', *, *, #430, .F. ) ;
#111 = VECTOR ( 'NONE', #725, 1000.000000000000000 ) ;
#112 = AXIS2_PLACEMENT_3D ( 'NONE', #293, #377, #857 ) ;
#113 = DIRECTION ( 'NONE',  ( 0.000000000000000000, 0.000000000000000000, 1.000000000000000000 ) ) ;
#114 = CIRCLE ( 'NONE', #783, 1.699999999999999956 ) ;
#115 = CARTESIAN_POINT ( 'NONE',  ( 67.50000000000000000, 0.8499999999999999778, -1.448891001457510038E-15 ) ) ;
#116 = ORIENTED_EDGE ( 'NONE', *, *, #914, .F. ) ;
#117 = ADVANCED_FACE ( 'NONE', ( #863 ), #231, .F. ) ;
#118 = CYLINDRICAL_SURFACE ( 'NONE', #411, 3.250000000000000000 ) ;
#119 = DIRECTION ( 'NONE',  ( 0.000000000000000000, -2.168404344971008868E-16, 1.000000000000000000 ) ) ;
#120 = DIRECTION ( 'NONE',  ( 0.000000000000000000, 1.000000000000000000, 1.000802005371233895E-16 ) ) ;
#121 = VERTEX_POINT ( 'NONE', #642 ) ;
#122 = EDGE_CURVE ( 'NONE', #335, #941, #141, .T. ) ;
#123 = CARTESIAN_POINT ( 'NONE',  ( 67.50000000000000000, -2.949999999999999734, -1.815110401941505364E-15 ) ) ;
#124 = LINE ( 'NONE', #367, #397 ) ;
#125 = CARTESIAN_POINT ( 'NONE',  ( 47.50000000000000000, 0.8499999999999999778, 1.000402596837195884E-15 ) ) ;
#126 = EDGE_CURVE ( 'NONE', #335, #821, #1023, .T. ) ;
#127 = LINE ( 'NONE', #618, #613 ) ;
#128 = CARTESIAN_POINT ( 'NONE',  ( 27.50000000000000000, -2.949999999999999734, -1.699999999999999956 ) ) ;
#129 = AXIS2_PLACEMENT_3D ( 'NONE', #739, #20, #977 ) ;
#130 = CARTESIAN_POINT ( 'NONE',  ( 95.00000000000000000, -3.250000000000000000, 4.500000000000000000 ) ) ;
#131 = CIRCLE ( 'NONE', #82, 3.250000000000000000 ) ;
#132 = CIRCLE ( 'NONE', #248, 0.7499999999999997780 ) ;
#133 = CARTESIAN_POINT ( 'NONE',  ( 27.50000000000000000, 0.8499999999999999778, 3.250000000000000000 ) ) ;
#134 = EDGE_CURVE ( 'NONE', #232, #171, #246, .T. ) ;
#135 = FACE_OUTER_BOUND ( 'NONE', #557, .T. ) ;
#136 = DIRECTION ( 'NONE',  ( 0.000000000000000000, -1.000000000000000000, 2.668805347656624706E-16 ) ) ;
#137 = DIRECTION ( 'NONE',  ( 0.000000000000000000, 0.000000000000000000, 1.000000000000000000 ) ) ;
#138 = VERTEX_POINT ( 'NONE', #898 ) ;
#139 = DIRECTION ( 'NONE',  ( 0.000000000000000000, -1.000000000000000000, -4.956352788505160310E-16 ) ) ;
#140 = DIRECTION ( 'NONE',  ( 0.000000000000000000, 1.000000000000000000, 9.637352644315598941E-17 ) ) ;
#141 = LINE ( 'NONE', #457, #752 ) ;
#142 = EDGE_LOOP ( 'NONE', ( #116, #567, #392, #163 ) ) ;
#143 = DIRECTION ( 'NONE',  ( 0.000000000000000000, 1.927470528863119788E-16, -1.000000000000000000 ) ) ;
#144 = ORIENTED_EDGE ( 'NONE', *, *, #526, .T. ) ;
#145 = CARTESIAN_POINT ( 'NONE',  ( 67.50000000000000000, 0.8499999999999999778, -1.448891001457510038E-15 ) ) ;
#146 = CARTESIAN_POINT ( 'NONE',  ( 47.50000000000000000, 3.250000000000000000, 1.231699060300770031E-15 ) ) ;
#147 = AXIS2_PLACEMENT_3D ( 'NONE', #207, #607, #930 ) ;
#148 = ADVANCED_FACE ( 'NONE', ( #105 ), #989, .F. ) ;
#149 = ORIENTED_EDGE ( 'NONE', *, *, #992, .T. ) ;
#150 = AXIS2_PLACEMENT_3D ( 'NONE', #448, #841, #284 ) ;
#151 = VECTOR ( 'NONE', #204, 1000.000000000000114 ) ;
#152 = DIRECTION ( 'NONE',  ( 0.000000000000000000, 0.000000000000000000, 1.000000000000000000 ) ) ;
#153 = ORIENTED_EDGE ( 'NONE', *, *, #803, .T. ) ;
#154 = FACE_OUTER_BOUND ( 'NONE', #89, .T. ) ;
#155 = CARTESIAN_POINT ( 'NONE',  ( 95.00000000000000000, 3.250000000000000000, -4.000000000000000000 ) ) ;
#156 = FACE_OUTER_BOUND ( 'NONE', #900, .T. ) ;
#157 = VERTEX_POINT ( 'NONE', #346 ) ;
#158 = DIRECTION ( 'NONE',  ( 0.000000000000000000, -1.000802005371234881E-16, 1.000000000000000000 ) ) ;
#159 = LINE ( 'NONE', #240, #81 ) ;
#160 = ORIENTED_EDGE ( 'NONE', *, *, #966, .F. ) ;
#161 = EDGE_CURVE ( 'NONE', #309, #199, #423, .T. ) ;
#162 = ORIENTED_EDGE ( 'NONE', *, *, #203, .F. ) ;
#163 = ORIENTED_EDGE ( 'NONE', *, *, #572, .F. ) ;
#164 = AXIS2_PLACEMENT_3D ( 'NONE', #210, #216, #926 ) ;
#165 = AXIS2_PLACEMENT_3D ( 'NONE', #980, #261, #608 ) ;
#166 = ORIENTED_EDGE ( 'NONE', *, *, #874, .F. ) ;
#167 = EDGE_CURVE ( 'NONE', #319, #821, #376, .T. ) ;
#168 = DIRECTION ( 'NONE',  ( 0.000000000000000000, -1.275531967630005245E-16, 1.000000000000000000 ) ) ;
#169 = MANIFOLD_SOLID_BREP ( 'NONE', #697 ) ;
#170 = VERTEX_POINT ( 'NONE', #403 ) ;
#171 = VERTEX_POINT ( 'NONE', #969 ) ;
#172 = EDGE_CURVE ( 'NONE', #417, #791, #680, .T. ) ;
#173 = DIRECTION ( 'NONE',  ( 0.000000000000000000, -2.168404344971008868E-16, 1.000000000000000000 ) ) ;
#174 = LINE ( 'NONE', #1025, #379 ) ;
#175 = ORIENTED_EDGE ( 'NONE', *, *, #671, .T. ) ;
#176 = ORIENTED_EDGE ( 'NONE', *, *, #104, .T. ) ;
#177 = CARTESIAN_POINT ( 'NONE',  ( 95.00000000000000000, 0.000000000000000000, 4.500000000000000000 ) ) ;
#178 = DIRECTION ( 'NONE',  ( 0.000000000000000000, 1.000000000000000000, 0.000000000000000000 ) ) ;
#179 = ORIENTED_EDGE ( 'NONE', *, *, #796, .T. ) ;
#180 = ADVANCED_FACE ( 'NONE', ( #251 ), #569, .F. ) ;
#181 = PLANE ( 'NONE',  #264 ) ;
#182 = AXIS2_PLACEMENT_3D ( 'NONE', #469, #638, #785 ) ;
#183 = CIRCLE ( 'NONE', #1003, 1.699999999999999956 ) ;
#184 = DIRECTION ( 'NONE',  ( 0.000000000000000000, 0.000000000000000000, 1.000000000000000000 ) ) ;
#185 = ORIENTED_EDGE ( 'NONE', *, *, #973, .T. ) ;
#186 = EDGE_CURVE ( 'NONE', #546, #941, #596, .T. ) ;
#187 = DIRECTION ( 'NONE',  ( 0.000000000000000000, 1.000000000000000000, 0.000000000000000000 ) ) ;
#188 = DIRECTION ( 'NONE',  ( 0.000000000000000000, 1.000000000000000000, 1.000802005371233895E-16 ) ) ;
#189 = ORIENTED_EDGE ( 'NONE', *, *, #238, .T. ) ;
#190 = EDGE_CURVE ( 'NONE', #157, #714, #812, .T. ) ;
#191 = CARTESIAN_POINT ( 'NONE',  ( 67.50000000000000000, 0.8499999999999999778, 3.250000000000000000 ) ) ;
#192 = CARTESIAN_POINT ( 'NONE',  ( 20.00000000000000000, 1.500000000000000000, -4.500000000000000000 ) ) ;
#193 = EDGE_LOOP ( 'NONE', ( #322, #402, #896, #237 ) ) ;
#194 = DIRECTION ( 'NONE',  ( 0.000000000000000000, 1.000000000000000000, 2.168404344971005170E-16 ) ) ;
#195 = VERTEX_POINT ( 'NONE', #584 ) ;
#196 = CARTESIAN_POINT ( 'NONE',  ( 67.50000000000000000, 3.250000000000000000, -3.250000000000000000 ) ) ;
#197 = VECTOR ( 'NONE', #252, 1000.000000000000114 ) ;
#198 = CARTESIAN_POINT ( 'NONE',  ( 47.50000000000000000, 0.8499999999999999778, 1.699999999999999956 ) ) ;
#199 = VERTEX_POINT ( 'NONE', #974 ) ;
#200 = LINE ( 'NONE', #1004, #15 ) ;
#201 = CARTESIAN_POINT ( 'NONE',  ( 75.00000000000000000, 0.000000000000000000, -4.500000000000000000 ) ) ;
#202 = CARTESIAN_POINT ( 'NONE',  ( 20.00000000000000000, 0.000000000000000000, -4.500000000000000000 ) ) ;
#203 = EDGE_CURVE ( 'NONE', #84, #235, #491, .T. ) ;
#204 = DIRECTION ( 'NONE',  ( 8.659560562355031466E-17, -0.7071067811865394681, 0.7071067811865555663 ) ) ;
#205 = EDGE_CURVE ( 'NONE', #91, #825, #823, .T. ) ;
#206 = CARTESIAN_POINT ( 'NONE',  ( 75.00000000000000000, 1.500000000000000000, -4.500000000000000000 ) ) ;
#207 = CARTESIAN_POINT ( 'NONE',  ( 29.19999999999999929, 0.8499999999999999778, 3.449696195131904566E-15 ) ) ;
#208 = CYLINDRICAL_SURFACE ( 'NONE', #754, 0.7499999999999997780 ) ;
#209 = ADVANCED_FACE ( 'NONE', ( #740 ), #661, .F. ) ;
#210 = CARTESIAN_POINT ( 'NONE',  ( 20.00000000000000000, 0.7500000000000000000, -4.500000000000000000 ) ) ;
#211 = CYLINDRICAL_SURFACE ( 'NONE', #494, 0.7499999999999997780 ) ;
#212 = VECTOR ( 'NONE', #464, 1000.000000000000000 ) ;
#213 = LINE ( 'NONE', #456, #215 ) ;
#214 = AXIS2_PLACEMENT_3D ( 'NONE', #712, #957, #73 ) ;
#215 = VECTOR ( 'NONE', #525, 1000.000000000000000 ) ;
#216 = DIRECTION ( 'NONE',  ( -1.000000000000000000, 0.000000000000000000, 0.000000000000000000 ) ) ;
#217 = ORIENTED_EDGE ( 'NONE', *, *, #807, .F. ) ;
#218 = FACE_OUTER_BOUND ( 'NONE', #142, .T. ) ;
#219 = LINE ( 'NONE', #708, #870 ) ;
#220 = DIRECTION ( 'NONE',  ( 0.000000000000000000, 9.637352644315598941E-17, -1.000000000000000000 ) ) ;
#221 = ORIENTED_EDGE ( 'NONE', *, *, #167, .T. ) ;
#222 = CARTESIAN_POINT ( 'NONE',  ( 69.20000000000000284, 0.8499999999999999778, -1.448891001457510038E-15 ) ) ;
#223 = ADVANCED_FACE ( 'NONE', ( #657, #267 ), #285, .F. ) ;
#224 = CYLINDRICAL_SURFACE ( 'NONE', #683, 3.250000000000000000 ) ;
#225 = CARTESIAN_POINT ( 'NONE',  ( 75.00000000000000000, 0.000000000000000000, 4.500000000000000000 ) ) ;
#226 = VERTEX_POINT ( 'NONE', #191 ) ;
#227 = FACE_OUTER_BOUND ( 'NONE', #762, .T. ) ;
#228 = EDGE_LOOP ( 'NONE', ( #500, #544 ) ) ;
#229 = DIRECTION ( 'NONE',  ( 0.000000000000000000, 1.000000000000000000, 1.334402673828311860E-16 ) ) ;
#230 = DIRECTION ( 'NONE',  ( 0.000000000000000000, 0.000000000000000000, 1.000000000000000000 ) ) ;
#231 = CONICAL_SURFACE ( 'NONE', #530, 2.000000000000000000, 0.7853981633974602694 ) ;
#232 = VERTEX_POINT ( 'NONE', #370 ) ;
#233 = AXIS2_PLACEMENT_3D ( 'NONE', #615, #938, #383 ) ;
#234 = CARTESIAN_POINT ( 'NONE',  ( 47.50000000000000000, -3.250000000000000000, 6.052711384202569938E-16 ) ) ;
#235 = VERTEX_POINT ( 'NONE', #599 ) ;
#236 = CARTESIAN_POINT ( 'NONE',  ( 95.00000000000000000, -3.250000000000000000, 4.500000000000000000 ) ) ;
#237 = ORIENTED_EDGE ( 'NONE', *, *, #430, .T. ) ;
#238 = EDGE_CURVE ( 'NONE', #660, #10, #506, .T. ) ;
#239 = EDGE_LOOP ( 'NONE', ( #466, #564, #637, #551, #806, #422, #956, #358, #516, #723, #110 ) ) ;
#240 = CARTESIAN_POINT ( 'NONE',  ( 20.00000000000000000, 3.250000000000000000, -4.000000000000000000 ) ) ;
#241 = VERTEX_POINT ( 'NONE', #128 ) ;
#242 = PRODUCT ( 'Rail Rail', 'Rail Rail', '', ( #314 ) ) ;
#243 = EDGE_CURVE ( 'NONE', #332, #944, #923, .T. ) ;
#244 = ORIENTED_EDGE ( 'NONE', *, *, #560, .F. ) ;
#245 = VERTEX_POINT ( 'NONE', #524 ) ;
#246 = CIRCLE ( 'NONE', #802, 3.250000000000000000 ) ;
#247 = VECTOR ( 'NONE', #78, 1000.000000000000000 ) ;
#248 = AXIS2_PLACEMENT_3D ( 'NONE', #277, #975, #467 ) ;
#249 = ADVANCED_FACE ( 'NONE', ( #685 ), #211, .F. ) ;
#250 = ORIENTED_EDGE ( 'NONE', *, *, #442, .F. ) ;
#251 = FACE_OUTER_BOUND ( 'NONE', #103, .T. ) ;
#252 = DIRECTION ( 'NONE',  ( 0.000000000000000000, 0.7071067811865474617, 0.7071067811865474617 ) ) ;
#253 = VERTEX_POINT ( 'NONE', #202 ) ;
#254 = ORIENTED_EDGE ( 'NONE', *, *, #718, .T. ) ;
#255 = DIRECTION ( 'NONE',  ( 0.000000000000000000, -0.7071067811865480168, 0.7071067811865470176 ) ) ;
#256 = ADVANCED_FACE ( 'NONE', ( #853 ), #40, .F. ) ;
#257 = CARTESIAN_POINT ( 'NONE',  ( 47.50000000000000000, 0.8499999999999999778, 1.000402596837195884E-15 ) ) ;
#258 = ORIENTED_EDGE ( 'NONE', *, *, #336, .T. ) ;
#259 = FACE_OUTER_BOUND ( 'NONE', #750, .T. ) ;
#260 = FILL_AREA_STYLE_COLOUR ( '', #460 ) ;
#261 = DIRECTION ( 'NONE',  ( 1.000000000000000000, 0.000000000000000000, 0.000000000000000000 ) ) ;
#262 = ORIENTED_EDGE ( 'NONE', *, *, #473, .T. ) ;
#263 = EDGE_CURVE ( 'NONE', #226, #332, #45, .T. ) ;
#264 = AXIS2_PLACEMENT_3D ( 'NONE', #24, #340, #943 ) ;
#265 = VECTOR ( 'NONE', #688, 1000.000000000000000 ) ;
#266 = AXIS2_PLACEMENT_3D ( 'NONE', #257, #22, #64 ) ;
#267 = FACE_OUTER_BOUND ( 'NONE', #861, .T. ) ;
#268 = CARTESIAN_POINT ( 'NONE',  ( 67.50000000000000000, -2.949999999999999734, -1.699999999999999956 ) ) ;
#269 = ORIENTED_EDGE ( 'NONE', *, *, #826, .F. ) ;
#270 = EDGE_CURVE ( 'NONE', #976, #380, #124, .T. ) ;
#271 = CARTESIAN_POINT ( 'NONE',  ( 67.50000000000000000, 3.250000000000000000, -1.217594537993936087E-15 ) ) ;
#272 = EDGE_LOOP ( 'NONE', ( #946, #217, #656, #575 ) ) ;
#273 = CARTESIAN_POINT ( 'NONE',  ( 20.00000000000000000, 2.750000000000000000, 4.500000000000000000 ) ) ;
#274 = DIRECTION ( 'NONE',  ( 0.000000000000000000, -1.000802005371234881E-16, 1.000000000000000000 ) ) ;
#275 = ORIENTED_EDGE ( 'NONE', *, *, #948, .F. ) ;
#276 = APPLICATION_CONTEXT ( 'automotive_design' ) ;
#277 = CARTESIAN_POINT ( 'NONE',  ( 20.00000000000000000, 0.7500000000000000000, 4.500000000000000000 ) ) ;
#278 = ADVANCED_FACE ( 'NONE', ( #280 ), #993, .F. ) ;
#279 = CIRCLE ( 'NONE', #112, 3.250000000000000000 ) ;
#280 = FACE_OUTER_BOUND ( 'NONE', #539, .T. ) ;
#281 = VECTOR ( 'NONE', #31, 1000.000000000000000 ) ;
#282 = DIRECTION ( 'NONE',  ( 0.000000000000000000, 1.000000000000000000, 4.956352788505160310E-16 ) ) ;
#283 = AXIS2_PLACEMENT_3D ( 'NONE', #289, #687, #778 ) ;
#284 = DIRECTION ( 'NONE',  ( 0.000000000000000000, 0.000000000000000000, 1.000000000000000000 ) ) ;
#285 = PLANE ( 'NONE',  #147 ) ;
#286 = DIRECTION ( 'NONE',  ( -1.000000000000000000, 0.000000000000000000, 0.000000000000000000 ) ) ;
#287 = CARTESIAN_POINT ( 'NONE',  ( 95.00000000000000000, -3.250000000000000000, -4.500000000000000000 ) ) ;
#288 = DIRECTION ( 'NONE',  ( 0.000000000000000000, -1.000000000000000000, 0.000000000000000000 ) ) ;
#289 = CARTESIAN_POINT ( 'NONE',  ( 47.50000000000000000, 3.250000000000000000, 1.231699060300770031E-15 ) ) ;
#290 = DIRECTION ( 'NONE',  ( 0.000000000000000000, 1.000000000000000000, 1.334402673828311860E-16 ) ) ;
#291 = ORIENTED_EDGE ( 'NONE', *, *, #104, .F. ) ;
#292 = VECTOR ( 'NONE', #531, 1000.000000000000000 ) ;
#293 = CARTESIAN_POINT ( 'NONE',  ( 27.50000000000000000, 0.8499999999999999778, 3.449696195131904566E-15 ) ) ;
#294 = MECHANICAL_DESIGN_GEOMETRIC_PRESENTATION_REPRESENTATION (  '', ( #13 ), #97 ) ;
#295 = DIRECTION ( 'NONE',  ( 0.000000000000000000, -4.956352788505160310E-16, 1.000000000000000000 ) ) ;
#296 = AXIS2_PLACEMENT_3D ( 'NONE', #1008, #756, #35 ) ;
#297 = CIRCLE ( 'NONE', #936, 3.250000000000000000 ) ;
#298 = LINE ( 'NONE', #767, #427 ) ;
#299 = ADVANCED_FACE ( 'NONE', ( #927 ), #444, .F. ) ;
#300 = VERTEX_POINT ( 'NONE', #602 ) ;
#301 = DIRECTION ( 'NONE',  ( 0.000000000000000000, 9.637352644315598941E-17, -1.000000000000000000 ) ) ;
#302 = CYLINDRICAL_SURFACE ( 'NONE', #283, 3.250000000000000000 ) ;
#303 = CARTESIAN_POINT ( 'NONE',  ( 67.50000000000000000, 3.250000000000000000, 1.699999999999999956 ) ) ;
#304 = EDGE_LOOP ( 'NONE', ( #962, #620 ) ) ;
#305 = LINE ( 'NONE', #624, #482 ) ;
#306 = ORIENTED_EDGE ( 'NONE', *, *, #671, .F. ) ;
#307 = DIRECTION ( 'NONE',  ( 0.000000000000000000, -1.000000000000000000, -9.637352644315598941E-17 ) ) ;
#308 = LINE ( 'NONE', #690, #955 ) ;
#309 = VERTEX_POINT ( 'NONE', #273 ) ;
#310 = FACE_BOUND ( 'NONE', #913, .T. ) ;
#311 = ORIENTED_EDGE ( 'NONE', *, *, #473, .F. ) ;
#312 = PLANE ( 'NONE',  #329 ) ;
#313 = ADVANCED_FACE ( 'NONE', ( #135 ), #510, .F. ) ;
#314 = PRODUCT_CONTEXT ( 'NONE', #276, 'mechanical' ) ;
#315 = VECTOR ( 'NONE', #677, 1000.000000000000000 ) ;
#316 = EDGE_LOOP ( 'NONE', ( #405, #784 ) ) ;
#317 = VECTOR ( 'NONE', #54, 1000.000000000000000 ) ;
#318 = AXIS2_PLACEMENT_3D ( 'NONE', #234, #790, #102 ) ;
#319 = VERTEX_POINT ( 'NONE', #689 ) ;
#320 = CARTESIAN_POINT ( 'NONE',  ( 27.50000000000000000, -3.250000000000000000, 3.054564736714965084E-15 ) ) ;
#321 = VERTEX_POINT ( 'NONE', #998 ) ;
#322 = ORIENTED_EDGE ( 'NONE', *, *, #95, .T. ) ;
#323 = LINE ( 'NONE', #720, #111 ) ;
#324 = ORIENTED_EDGE ( 'NONE', *, *, #796, .F. ) ;
#325 = ORIENTED_EDGE ( 'NONE', *, *, #815, .T. ) ;
#326 = PLANE ( 'NONE',  #1019 ) ;
#327 = VERTEX_POINT ( 'NONE', #439 ) ;
#328 = CONICAL_SURFACE ( 'NONE', #129, 2.000000000000000000, 0.7853981633974602694 ) ;
#329 = AXIS2_PLACEMENT_3D ( 'NONE', #222, #307, #869 ) ;
#330 = AXIS2_PLACEMENT_3D ( 'NONE', #125, #120, #436 ) ;
#331 = EDGE_CURVE ( 'NONE', #941, #546, #887, .T. ) ;
#332 = VERTEX_POINT ( 'NONE', #449 ) ;
#333 = SURFACE_STYLE_FILL_AREA ( #108 ) ;
#334 = CARTESIAN_POINT ( 'NONE',  ( 95.00000000000000000, 3.250000000000000000, -4.500000000000000000 ) ) ;
#335 = VERTEX_POINT ( 'NONE', #588 ) ;
#336 = EDGE_CURVE ( 'NONE', #7, #660, #435, .T. ) ;
#337 = DIRECTION ( 'NONE',  ( 0.000000000000000000, 0.000000000000000000, 1.000000000000000000 ) ) ;
#338 = FACE_BOUND ( 'NONE', #304, .T. ) ;
#339 = ORIENTED_EDGE ( 'NONE', *, *, #1034, .F. ) ;
#340 = DIRECTION ( 'NONE',  ( 0.000000000000000000, 1.000000000000000000, 1.927470528863119788E-16 ) ) ;
#341 = ADVANCED_FACE ( 'NONE', ( #521 ), #47, .F. ) ;
#342 = DIRECTION ( 'NONE',  ( 0.000000000000000000, 1.000000000000000000, 1.275531967630009929E-16 ) ) ;
#343 = CARTESIAN_POINT ( 'NONE',  ( 20.00000000000000000, 1.500000000000000000, -4.500000000000000000 ) ) ;
#344 = VERTEX_POINT ( 'NONE', #911 ) ;
#345 = CIRCLE ( 'NONE', #954, 3.250000000000000000 ) ;
#346 = CARTESIAN_POINT ( 'NONE',  ( 75.00000000000000000, 1.500000000000000000, 4.500000000000000000 ) ) ;
#347 = CYLINDRICAL_SURFACE ( 'NONE', #738, 1.699999999999999956 ) ;
#348 = ORIENTED_EDGE ( 'NONE', *, *, #122, .F. ) ;
#349 = FACE_BOUND ( 'NONE', #352, .T. ) ;
#350 = DIRECTION ( 'NONE',  ( -1.000000000000000000, 0.000000000000000000, 0.000000000000000000 ) ) ;
#351 = CARTESIAN_POINT ( 'NONE',  ( 95.00000000000000000, 2.750000000000000000, 4.500000000000000000 ) ) ;
#352 = EDGE_LOOP ( 'NONE', ( #895, #788 ) ) ;
#353 = EDGE_CURVE ( 'NONE', #425, #170, #3, .T. ) ;
#354 = DIRECTION ( 'NONE',  ( 0.000000000000000000, 1.000000000000000000, 2.168404344971005170E-16 ) ) ;
#355 = LINE ( 'NONE', #829, #315 ) ;
#356 = DIRECTION ( 'NONE',  ( 0.000000000000000000, 1.000000000000000000, 0.000000000000000000 ) ) ;
#357 = CARTESIAN_POINT ( 'NONE',  ( 47.50000000000000000, 0.8499999999999999778, 1.000402596837195884E-15 ) ) ;
#358 = ORIENTED_EDGE ( 'NONE', *, *, #336, .F. ) ;
#359 = DIRECTION ( 'NONE',  ( 0.000000000000000000, 4.956352788505160310E-16, -1.000000000000000000 ) ) ;
#360 = VECTOR ( 'NONE', #407, 1000.000000000000000 ) ;
#361 = CIRCLE ( 'NONE', #719, 2.000000000000000000 ) ;
#362 = DIRECTION ( 'NONE',  ( 0.000000000000000000, 0.000000000000000000, 1.000000000000000000 ) ) ;
#363 = AXIS2_PLACEMENT_3D ( 'NONE', #470, #1029, #931 ) ;
#364 = FACE_OUTER_BOUND ( 'NONE', #746, .T. ) ;
#365 = VECTOR ( 'NONE', #617, 1000.000000000000000 ) ;
#366 = CARTESIAN_POINT ( 'NONE',  ( 95.00000000000000000, 2.750000000000000000, -4.500000000000000000 ) ) ;
#367 = CARTESIAN_POINT ( 'NONE',  ( 47.50000000000000000, -3.250000000000000000, 2.000000000000000000 ) ) ;
#368 = FACE_OUTER_BOUND ( 'NONE', #396, .T. ) ;
#369 = DIRECTION ( 'NONE',  ( 0.000000000000000000, 0.000000000000000000, 1.000000000000000000 ) ) ;
#370 = CARTESIAN_POINT ( 'NONE',  ( 47.50000000000000000, 3.250000000000000000, -3.250000000000000000 ) ) ;
#371 = DIRECTION ( 'NONE',  ( 0.000000000000000000, 1.000000000000000000, -2.668805347656630130E-16 ) ) ;
#372 = ADVANCED_FACE ( 'NONE', ( #547, #154 ), #554, .F. ) ;
#373 = EDGE_CURVE ( 'NONE', #84, #157, #647, .T. ) ;
#374 = DIRECTION ( 'NONE',  ( -1.000000000000000000, 0.000000000000000000, 0.000000000000000000 ) ) ;
#375 = ORIENTED_EDGE ( 'NONE', *, *, #353, .F. ) ;
#376 = CIRCLE ( 'NONE', #479, 1.699999999999999956 ) ;
#377 = DIRECTION ( 'NONE',  ( 0.000000000000000000, 1.000000000000000000, 1.000802005371233895E-16 ) ) ;
#378 = CIRCLE ( 'NONE', #164, 0.7499999999999997780 ) ;
#379 = VECTOR ( 'NONE', #472, 999.9999999999998863 ) ;
#380 = VERTEX_POINT ( 'NONE', #540 ) ;
#381 = CARTESIAN_POINT ( 'NONE',  ( 75.00000000000000000, 3.250000000000000000, -4.000000000000000000 ) ) ;
#382 = ORIENTED_EDGE ( 'NONE', *, *, #167, .F. ) ;
#383 = DIRECTION ( 'NONE',  ( 0.000000000000000000, 0.000000000000000000, -1.000000000000000000 ) ) ;
#384 = PLANE ( 'NONE',  #804 ) ;
#385 = ORIENTED_EDGE ( 'NONE', *, *, #581, .T. ) ;
#386 = FACE_OUTER_BOUND ( 'NONE', #72, .T. ) ;
#387 = EDGE_CURVE ( 'NONE', #332, #226, #735, .T. ) ;
#388 = ORIENTED_EDGE ( 'NONE', *, *, #190, .T. ) ;
#389 = CARTESIAN_POINT ( 'NONE',  ( 75.00000000000000000, -3.250000000000000000, 4.500000000000000000 ) ) ;
#390 = LINE ( 'NONE', #779, #212 ) ;
#391 = EDGE_LOOP ( 'NONE', ( #291, #250, #595, #553 ) ) ;
#392 = ORIENTED_EDGE ( 'NONE', *, *, #528, .T. ) ;
#393 = DIRECTION ( 'NONE',  ( 0.000000000000000000, 0.000000000000000000, -1.000000000000000000 ) ) ;
#394 = ADVANCED_FACE ( 'NONE', ( #218 ), #903, .F. ) ;
#395 = VECTOR ( 'NONE', #654, 1000.000000000000000 ) ;
#396 = EDGE_LOOP ( 'NONE', ( #641, #483, #704, #418 ) ) ;
#397 = VECTOR ( 'NONE', #673, 1000.000000000000000 ) ;
#398 = AXIS2_PLACEMENT_3D ( 'NONE', #793, #950, #1010 ) ;
#399 = ORIENTED_EDGE ( 'NONE', *, *, #550, .T. ) ;
#400 = CARTESIAN_POINT ( 'NONE',  ( 27.50000000000000000, 0.8499999999999999778, -3.250000000000000000 ) ) ;
#401 = ORIENTED_EDGE ( 'NONE', *, *, #205, .F. ) ;
#402 = ORIENTED_EDGE ( 'NONE', *, *, #886, .T. ) ;
#403 = CARTESIAN_POINT ( 'NONE',  ( 20.00000000000000000, -3.250000000000000000, 4.500000000000000000 ) ) ;
#404 = FACE_BOUND ( 'NONE', #801, .T. ) ;
#405 = ORIENTED_EDGE ( 'NONE', *, *, #721, .F. ) ;
#406 = ORIENTED_EDGE ( 'NONE', *, *, #592, .T. ) ;
#407 = DIRECTION ( 'NONE',  ( -1.000000000000000000, 0.000000000000000000, 0.000000000000000000 ) ) ;
#408 = CARTESIAN_POINT ( 'NONE',  ( 20.00000000000000000, -3.250000000000000000, -4.500000000000000000 ) ) ;
#409 = ORIENTED_EDGE ( 'NONE', *, *, #988, .F. ) ;
#410 = AXIS2_PLACEMENT_3D ( 'NONE', #787, #79, #230 ) ;
#411 = AXIS2_PLACEMENT_3D ( 'NONE', #1011, #290, #611 ) ;
#412 = CIRCLE ( 'NONE', #583, 3.250000000000000000 ) ;
#413 = PRODUCT_DEFINITION_FORMATION_WITH_SPECIFIED_SOURCE ( 'ANY', '', #242, .NOT_KNOWN. ) ;
#414 = CARTESIAN_POINT ( 'NONE',  ( 67.50000000000000000, 3.250000000000000000, 3.250000000000000000 ) ) ;
#415 = CARTESIAN_POINT ( 'NONE',  ( 27.50000000000000000, 3.250000000000000000, 1.699999999999999956 ) ) ;
#416 = CARTESIAN_POINT ( 'NONE',  ( 75.00000000000000000, 3.250000000000000000, -4.000000000000000000 ) ) ;
#417 = VERTEX_POINT ( 'NONE', #717 ) ;
#418 = ORIENTED_EDGE ( 'NONE', *, *, #95, .F. ) ;
#419 = EDGE_CURVE ( 'NONE', #32, #944, #834, .T. ) ;
#420 = SURFACE_STYLE_USAGE ( .BOTH. , #902 ) ;
#421 = CARTESIAN_POINT ( 'NONE',  ( 67.50000000000000000, 0.8499999999999999778, 1.699999999999999956 ) ) ;
#422 = ORIENTED_EDGE ( 'NONE', *, *, #803, .F. ) ;
#423 = LINE ( 'NONE', #808, #395 ) ;
#424 = DIRECTION ( 'NONE',  ( 1.000000000000000000, 0.000000000000000000, 0.000000000000000000 ) ) ;
#425 = VERTEX_POINT ( 'NONE', #389 ) ;
#426 = AXIS2_PLACEMENT_3D ( 'NONE', #646, #484, #255 ) ;
#427 = VECTOR ( 'NONE', #43, 1000.000000000000000 ) ;
#428 = AXIS2_PLACEMENT_3D ( 'NONE', #865, #578, #904 ) ;
#429 = CARTESIAN_POINT ( 'NONE',  ( 95.00000000000000000, 0.7500000000000000000, 4.500000000000000000 ) ) ;
#430 = EDGE_CURVE ( 'NONE', #121, #534, #455, .T. ) ;
#431 = DIRECTION ( 'NONE',  ( 0.000000000000000000, -1.000000000000000000, 0.000000000000000000 ) ) ;
#432 = ORIENTED_EDGE ( 'NONE', *, *, #243, .F. ) ;
#433 = FACE_OUTER_BOUND ( 'NONE', #724, .T. ) ;
#434 = CARTESIAN_POINT ( 'NONE',  ( 75.00000000000000000, 3.250000000000000000, -10.67157065585961995 ) ) ;
#435 = LINE ( 'NONE', #760, #317 ) ;
#436 = DIRECTION ( 'NONE',  ( 0.000000000000000000, -1.000802005371234881E-16, 1.000000000000000000 ) ) ;
#437 = ORIENTED_EDGE ( 'NONE', *, *, #610, .F. ) ;
#438 = CARTESIAN_POINT ( 'NONE',  ( 27.50000000000000000, 3.250000000000000000, 3.680992658595479897E-15 ) ) ;
#439 = CARTESIAN_POINT ( 'NONE',  ( 75.00000000000000000, 3.250000000000000000, 4.000000000000000000 ) ) ;
#440 = LINE ( 'NONE', #192, #920 ) ;
#441 = LINE ( 'NONE', #836, #933 ) ;
#442 = EDGE_CURVE ( 'NONE', #591, #98, #279, .T. ) ;
#443 = AXIS2_PLACEMENT_3D ( 'NONE', #320, #535, #393 ) ;
#444 = CYLINDRICAL_SURFACE ( 'NONE', #681, 1.699999999999999956 ) ;
#445 = VECTOR ( 'NONE', #522, 1000.000000000000000 ) ;
#446 = DIRECTION ( 'NONE',  ( 0.000000000000000000, 0.000000000000000000, 1.000000000000000000 ) ) ;
#447 = AXIS2_PLACEMENT_3D ( 'NONE', #897, #555, #728 ) ;
#448 = CARTESIAN_POINT ( 'NONE',  ( 47.50000000000000000, 3.250000000000000000, 1.231699060300770031E-15 ) ) ;
#449 = CARTESIAN_POINT ( 'NONE',  ( 67.50000000000000000, 0.8499999999999999778, -3.250000000000000000 ) ) ;
#450 = EDGE_CURVE ( 'NONE', #309, #714, #475, .T. ) ;
#451 = EDGE_CURVE ( 'NONE', #138, #321, #66, .T. ) ;
#452 = DIRECTION ( 'NONE',  ( 0.000000000000000000, 1.000000000000000000, 1.334402673828311860E-16 ) ) ;
#453 = DIRECTION ( 'NONE',  ( 0.000000000000000000, -2.168404344971008868E-16, 1.000000000000000000 ) ) ;
#454 = EDGE_LOOP ( 'NONE', ( #711, #485 ) ) ;
#455 = LINE ( 'NONE', #1021, #1036 ) ;
#456 = CARTESIAN_POINT ( 'NONE',  ( 47.50000000000000000, 3.250000000000000000, -3.250000000000000000 ) ) ;
#457 = CARTESIAN_POINT ( 'NONE',  ( 67.50000000000000000, -3.250000000000000000, 2.000000000000000000 ) ) ;
#458 = DIRECTION ( 'NONE',  ( 0.000000000000000000, 0.000000000000000000, 1.000000000000000000 ) ) ;
#459 = ORIENTED_EDGE ( 'NONE', *, *, #518, .T. ) ;
#460 = COLOUR_RGB ( '',0.7921568627450980005, 0.8196078431372548767, 0.9333333333333333481 ) ;
#461 = FACE_OUTER_BOUND ( 'NONE', #391, .T. ) ;
#462 = AXIS2_PLACEMENT_3D ( 'NONE', #692, #519, #1007 ) ;
#463 =( NAMED_UNIT ( * ) SI_UNIT ( $, .STERADIAN. ) SOLID_ANGLE_UNIT ( ) );
#464 = DIRECTION ( 'NONE',  ( 0.000000000000000000, 1.000000000000000000, 9.637352644315598941E-17 ) ) ;
#465 = EDGE_CURVE ( 'NONE', #321, #873, #496, .T. ) ;
#466 = ORIENTED_EDGE ( 'NONE', *, *, #664, .T. ) ;
#467 = DIRECTION ( 'NONE',  ( 0.000000000000000000, 0.000000000000000000, -1.000000000000000000 ) ) ;
#468 = EDGE_LOOP ( 'NONE', ( #478, #459 ) ) ;
#469 = CARTESIAN_POINT ( 'NONE',  ( 67.50000000000000000, 3.250000000000000000, -1.217594537993936087E-15 ) ) ;
#470 = CARTESIAN_POINT ( 'NONE',  ( 27.50000000000000000, -2.949999999999999734, 3.083476794647914762E-15 ) ) ;
#471 = ORIENTED_EDGE ( 'NONE', *, *, #263, .F. ) ;
#472 = DIRECTION ( 'NONE',  ( 0.000000000000000000, -0.7071067811865391350, -0.7071067811865560104 ) ) ;
#473 = EDGE_CURVE ( 'NONE', #890, #319, #777, .T. ) ;
#474 = EDGE_LOOP ( 'NONE', ( #561, #176, #800, #339 ) ) ;
#475 = LINE ( 'NONE', #1033, #30 ) ;
#476 = EDGE_LOOP ( 'NONE', ( #388, #737, #162, #805 ) ) ;
#477 = ADVANCED_FACE ( 'NONE', ( #461 ), #701, .F. ) ;
#478 = ORIENTED_EDGE ( 'NONE', *, *, #658, .T. ) ;
#479 = AXIS2_PLACEMENT_3D ( 'NONE', #88, #342, #744 ) ;
#480 = ORIENTED_EDGE ( 'NONE', *, *, #789, .T. ) ;
#481 = AXIS2_PLACEMENT_3D ( 'NONE', #1018, #194, #511 ) ;
#482 = VECTOR ( 'NONE', #945, 1000.000000000000000 ) ;
#483 = ORIENTED_EDGE ( 'NONE', *, *, #451, .T. ) ;
#484 = DIRECTION ( 'NONE',  ( 0.000000000000000000, -0.7071067811865470176, -0.7071067811865480168 ) ) ;
#485 = ORIENTED_EDGE ( 'NONE', *, *, #838, .F. ) ;
#486 = ORIENTED_EDGE ( 'NONE', *, *, #465, .F. ) ;
#487 = CARTESIAN_POINT ( 'NONE',  ( 75.00000000000000000, -3.250000000000000000, -4.500000000000000000 ) ) ;
#488 = EDGE_LOOP ( 'NONE', ( #325, #262, #221, #816 ) ) ;
#489 = EDGE_LOOP ( 'NONE', ( #189, #185, #77, #258 ) ) ;
#490 = APPLICATION_PROTOCOL_DEFINITION ( 'draft international standard', 'automotive_design', 1998, #276 ) ;
#491 = LINE ( 'NONE', #177, #1000 ) ;
#492 = CARTESIAN_POINT ( 'NONE',  ( 47.50000000000000000, -3.250000000000000000, 6.052711384202569938E-16 ) ) ;
#493 = ORIENTED_EDGE ( 'NONE', *, *, #263, .T. ) ;
#494 = AXIS2_PLACEMENT_3D ( 'NONE', #429, #915, #830 ) ;
#495 = ADVANCED_FACE ( 'NONE', ( #862, #707 ), #312, .F. ) ;
#496 = CIRCLE ( 'NONE', #233, 0.7499999999999997780 ) ;
#497 = LINE ( 'NONE', #434, #817 ) ;
#498 = CARTESIAN_POINT ( 'NONE',  ( 67.50000000000000000, 3.250000000000000000, -1.217594537993936087E-15 ) ) ;
#499 = CARTESIAN_POINT ( 'NONE',  ( 47.50000000000000000, 3.250000000000000000, 3.250000000000000000 ) ) ;
#500 = ORIENTED_EDGE ( 'NONE', *, *, #610, .T. ) ;
#501 = DIRECTION ( 'NONE',  ( 0.000000000000000000, -1.334402673828313093E-16, 1.000000000000000000 ) ) ;
#502 = UNCERTAINTY_MEASURE_WITH_UNIT (LENGTH_MEASURE( 1.000000000000000082E-05 ), #622, 'distance_accuracy_value', 'NONE');
#503 = DIRECTION ( 'NONE',  ( 0.000000000000000000, -1.000802005371234881E-16, 1.000000000000000000 ) ) ;
#504 = ORIENTED_EDGE ( 'NONE', *, *, #451, .F. ) ;
#505 = CARTESIAN_POINT ( 'NONE',  ( 20.00000000000000000, -3.250000000000000000, -4.500000000000000000 ) ) ;
#506 = LINE ( 'NONE', #44, #733 ) ;
#507 = CARTESIAN_POINT ( 'NONE',  ( 47.50000000000000000, 0.8499999999999999778, 3.250000000000000000 ) ) ;
#508 = ORIENTED_EDGE ( 'NONE', *, *, #886, .F. ) ;
#509 = VECTOR ( 'NONE', #623, 1000.000000000000000 ) ;
#510 = CONICAL_SURFACE ( 'NONE', #665, 2.000000000000000000, 0.7853981633974589371 ) ;
#511 = DIRECTION ( 'NONE',  ( 0.000000000000000000, -2.168404344971008868E-16, 1.000000000000000000 ) ) ;
#512 = DIRECTION ( 'NONE',  ( 0.000000000000000000, -9.441281118757038758E-17, 1.000000000000000000 ) ) ;
#513 = AXIS2_PLACEMENT_3D ( 'NONE', #757, #669, #745 ) ;
#514 = CARTESIAN_POINT ( 'NONE',  ( 47.50000000000000000, -3.250000000000000000, 6.052711384202569938E-16 ) ) ;
#515 = CARTESIAN_POINT ( 'NONE',  ( 75.00000000000000000, -3.250000000000000000, 4.500000000000000000 ) ) ;
#516 = ORIENTED_EDGE ( 'NONE', *, *, #932, .F. ) ;
#517 = EDGE_CURVE ( 'NONE', #91, #241, #885, .T. ) ;
#518 = EDGE_CURVE ( 'NONE', #380, #245, #984, .T. ) ;
#519 = DIRECTION ( 'NONE',  ( 0.000000000000000000, 1.000000000000000000, 2.168404344971010101E-16 ) ) ;
#520 = DIRECTION ( 'NONE',  ( 0.000000000000000000, -1.334402673828313093E-16, 1.000000000000000000 ) ) ;
#521 = FACE_OUTER_BOUND ( 'NONE', #963, .T. ) ;
#522 = DIRECTION ( 'NONE',  ( 0.000000000000000000, 1.000000000000000000, 9.637352644315598941E-17 ) ) ;
#523 = DIRECTION ( 'NONE',  ( 0.000000000000000000, -1.334402673828313093E-16, 1.000000000000000000 ) ) ;
#524 = CARTESIAN_POINT ( 'NONE',  ( 47.50000000000000000, -3.250000000000000000, -2.000000000000000000 ) ) ;
#525 = DIRECTION ( 'NONE',  ( 0.000000000000000000, 1.000000000000000000, 9.637352644315598941E-17 ) ) ;
#526 = EDGE_CURVE ( 'NONE', #253, #321, #378, .T. ) ;
#527 = CARTESIAN_POINT ( 'NONE',  ( 27.50000000000000000, 3.250000000000000000, 3.250000000000000000 ) ) ;
#528 = EDGE_CURVE ( 'NONE', #241, #300, #200, .T. ) ;
#529 = ADVANCED_FACE ( 'NONE', ( #433 ), #772, .F. ) ;
#530 = AXIS2_PLACEMENT_3D ( 'NONE', #562, #799, #878 ) ;
#531 = DIRECTION ( 'NONE',  ( 0.000000000000000000, 1.000000000000000000, 9.637352644315598941E-17 ) ) ;
#532 = FACE_OUTER_BOUND ( 'NONE', #809, .T. ) ;
#533 = DIRECTION ( 'NONE',  ( 0.000000000000000000, 1.000000000000000000, 1.334402673828311860E-16 ) ) ;
#534 = VERTEX_POINT ( 'NONE', #206 ) ;
#535 = DIRECTION ( 'NONE',  ( 0.000000000000000000, -1.000000000000000000, 0.000000000000000000 ) ) ;
#536 = FACE_OUTER_BOUND ( 'NONE', #474, .T. ) ;
#537 = ORIENTED_EDGE ( 'NONE', *, *, #50, .F. ) ;
#538 = PLANE ( 'NONE',  #867 ) ;
#539 = EDGE_LOOP ( 'NONE', ( #742, #275, #94, #972 ) ) ;
#540 = CARTESIAN_POINT ( 'NONE',  ( 47.50000000000000000, -3.250000000000000000, 2.000000000000000000 ) ) ;
#541 = ADVANCED_FACE ( 'NONE', ( #53 ), #118, .F. ) ;
#542 =( NAMED_UNIT ( * ) PLANE_ANGLE_UNIT ( ) SI_UNIT ( $, .RADIAN. ) );
#543 = DIRECTION ( 'NONE',  ( -1.000000000000000000, 0.000000000000000000, 0.000000000000000000 ) ) ;
#544 = ORIENTED_EDGE ( 'NONE', *, *, #572, .T. ) ;
#545 = CYLINDRICAL_SURFACE ( 'NONE', #428, 1.699999999999999956 ) ;
#546 = VERTEX_POINT ( 'NONE', #601 ) ;
#547 = FACE_BOUND ( 'NONE', #316, .T. ) ;
#548 = CIRCLE ( 'NONE', #582, 1.699999999999999956 ) ;
#549 = AXIS2_PLACEMENT_3D ( 'NONE', #628, #295, #52 ) ;
#550 = EDGE_CURVE ( 'NONE', #890, #335, #548, .T. ) ;
#551 = ORIENTED_EDGE ( 'NONE', *, *, #925, .F. ) ;
#552 = CARTESIAN_POINT ( 'NONE',  ( 20.00000000000000000, -6.750000000000000000, -10.56272104409404022 ) ) ;
#553 = ORIENTED_EDGE ( 'NONE', *, *, #560, .T. ) ;
#554 = PLANE ( 'NONE',  #919 ) ;
#555 = DIRECTION ( 'NONE',  ( 0.000000000000000000, 0.000000000000000000, 1.000000000000000000 ) ) ;
#556 = EDGE_LOOP ( 'NONE', ( #643, #868, #727, #401 ) ) ;
#557 = EDGE_LOOP ( 'NONE', ( #631, #324, #2, #879 ) ) ;
#558 = CARTESIAN_POINT ( 'NONE',  ( 47.50000000000000000, -3.250000000000000000, -2.000000000000000000 ) ) ;
#559 = ORIENTED_EDGE ( 'NONE', *, *, #721, .T. ) ;
#560 = EDGE_CURVE ( 'NONE', #571, #195, #131, .T. ) ;
#561 = ORIENTED_EDGE ( 'NONE', *, *, #845, .F. ) ;
#562 = CARTESIAN_POINT ( 'NONE',  ( 67.50000000000000000, -3.250000000000000000, -1.844022459874449914E-15 ) ) ;
#563 = AXIS2_PLACEMENT_3D ( 'NONE', #694, #350, #113 ) ;
#564 = ORIENTED_EDGE ( 'NONE', *, *, #4, .T. ) ;
#565 = VECTOR ( 'NONE', #424, 1000.000000000000000 ) ;
#566 = CIRCLE ( 'NONE', #330, 3.250000000000000000 ) ;
#567 = ORIENTED_EDGE ( 'NONE', *, *, #959, .F. ) ;
#568 = ADVANCED_FACE ( 'NONE', ( #775 ), #696, .F. ) ;
#569 = CYLINDRICAL_SURFACE ( 'NONE', #645, 3.250000000000000000 ) ;
#570 = ORIENTED_EDGE ( 'NONE', *, *, #684, .T. ) ;
#571 = VERTEX_POINT ( 'NONE', #527 ) ;
#572 = EDGE_CURVE ( 'NONE', #859, #300, #361, .T. ) ;
#573 = DIRECTION ( 'NONE',  ( 0.000000000000000000, -1.334402673828313093E-16, 1.000000000000000000 ) ) ;
#574 = CARTESIAN_POINT ( 'NONE',  ( 27.50000000000000000, 0.8499999999999999778, 3.449696195131904566E-15 ) ) ;
#575 = ORIENTED_EDGE ( 'NONE', *, *, #907, .F. ) ;
#576 = CARTESIAN_POINT ( 'NONE',  ( 67.50000000000000000, 3.250000000000000000, -1.217594537993936087E-15 ) ) ;
#577 =( NAMED_UNIT ( * ) SI_UNIT ( $, .STERADIAN. ) SOLID_ANGLE_UNIT ( ) );
#578 = DIRECTION ( 'NONE',  ( 0.000000000000000000, 1.000000000000000000, 0.000000000000000000 ) ) ;
#579 = ORIENTED_EDGE ( 'NONE', *, *, #550, .F. ) ;
#580 = EDGE_CURVE ( 'NONE', #327, #918, #127, .T. ) ;
#581 = EDGE_CURVE ( 'NONE', #171, #232, #345, .T. ) ;
#582 = AXIS2_PLACEMENT_3D ( 'NONE', #123, #934, #137 ) ;
#583 = AXIS2_PLACEMENT_3D ( 'NONE', #761, #188, #274 ) ;
#584 = CARTESIAN_POINT ( 'NONE',  ( 27.50000000000000000, 3.250000000000000000, -3.250000000000000000 ) ) ;
#585 = CARTESIAN_POINT ( 'NONE',  ( 20.00000000000000000, -3.250000000000000000, 4.500000000000000000 ) ) ;
#586 = ORIENTED_EDGE ( 'NONE', *, *, #751, .T. ) ;
#587 = EDGE_CURVE ( 'NONE', #226, #32, #441, .T. ) ;
#588 = CARTESIAN_POINT ( 'NONE',  ( 67.50000000000000000, -2.949999999999999734, 1.699999999999999956 ) ) ;
#589 = CARTESIAN_POINT ( 'NONE',  ( 20.00000000000000000, 2.750000000000000000, -4.500000000000000000 ) ) ;
#590 = EDGE_LOOP ( 'NONE', ( #537, #14, #758, #864 ) ) ;
#591 = VERTEX_POINT ( 'NONE', #133 ) ;
#592 = EDGE_CURVE ( 'NONE', #780, #417, #298, .T. ) ;
#593 = DIRECTION ( 'NONE',  ( 0.000000000000000000, -0.7071067811865475727, 0.7071067811865475727 ) ) ;
#594 = FACE_OUTER_BOUND ( 'NONE', #488, .T. ) ;
#595 = ORIENTED_EDGE ( 'NONE', *, *, #1034, .T. ) ;
#596 = CIRCLE ( 'NONE', #632, 2.000000000000000000 ) ;
#597 = CARTESIAN_POINT ( 'NONE',  ( 27.50000000000000000, -2.949999999999999734, 3.083476794647914762E-15 ) ) ;
#598 = CIRCLE ( 'NONE', #699, 1.699999999999999956 ) ;
#599 = CARTESIAN_POINT ( 'NONE',  ( 20.00000000000000000, 0.000000000000000000, 4.500000000000000000 ) ) ;
#600 = CARTESIAN_POINT ( 'NONE',  ( 67.50000000000000000, -2.949999999999999734, -1.815110401941505364E-15 ) ) ;
#601 = CARTESIAN_POINT ( 'NONE',  ( 67.50000000000000000, -3.250000000000000000, -2.000000000000000000 ) ) ;
#602 = CARTESIAN_POINT ( 'NONE',  ( 27.50000000000000000, -3.250000000000000000, -2.000000000000000000 ) ) ;
#603 = EDGE_CURVE ( 'NONE', #794, #121, #49, .T. ) ;
#604 = FACE_OUTER_BOUND ( 'NONE', #193, .T. ) ;
#605 = ADVANCED_FACE ( 'NONE', ( #855 ), #56, .F. ) ;
#606 = CARTESIAN_POINT ( 'NONE',  ( 47.50000000000000000, 3.250000000000000000, 1.231699060300770031E-15 ) ) ;
#607 = DIRECTION ( 'NONE',  ( 0.000000000000000000, -1.000000000000000000, -9.637352644315598941E-17 ) ) ;
#608 = DIRECTION ( 'NONE',  ( 0.000000000000000000, 0.000000000000000000, 1.000000000000000000 ) ) ;
#609 = ADVANCED_BREP_SHAPE_REPRESENTATION ( 'Rail Rail', ( #169, #447 ), #786 ) ;
#610 = EDGE_CURVE ( 'NONE', #300, #859, #850, .T. ) ;
#611 = DIRECTION ( 'NONE',  ( 0.000000000000000000, -1.334402673828313093E-16, 1.000000000000000000 ) ) ;
#612 = AXIS2_PLACEMENT_3D ( 'NONE', #29, #983, #168 ) ;
#613 = VECTOR ( 'NONE', #676, 1000.000000000000000 ) ;
#614 = EDGE_LOOP ( 'NONE', ( #493, #937 ) ) ;
#615 = CARTESIAN_POINT ( 'NONE',  ( 20.00000000000000000, 0.7500000000000000000, -4.500000000000000000 ) ) ;
#616 = AXIS2_PLACEMENT_3D ( 'NONE', #1031, #813, #152 ) ;
#617 = DIRECTION ( 'NONE',  ( 0.000000000000000000, 1.000000000000000000, 9.637352644315598941E-17 ) ) ;
#618 = CARTESIAN_POINT ( 'NONE',  ( 75.00000000000000000, 2.750000000000000000, 4.500000000000000000 ) ) ;
#619 = EDGE_CURVE ( 'NONE', #714, #235, #132, .T. ) ;
#620 = ORIENTED_EDGE ( 'NONE', *, *, #134, .F. ) ;
#621 = CARTESIAN_POINT ( 'NONE',  ( 27.50000000000000000, 3.250000000000000000, 3.680992658595479897E-15 ) ) ;
#622 =( LENGTH_UNIT ( ) NAMED_UNIT ( * ) SI_UNIT ( .MILLI., .METRE. ) );
#623 = DIRECTION ( 'NONE',  ( 0.000000000000000000, 1.000000000000000000, 9.637352644315598941E-17 ) ) ;
#624 = CARTESIAN_POINT ( 'NONE',  ( 95.00000000000000000, 0.000000000000000000, -4.500000000000000000 ) ) ;
#625 = EDGE_LOOP ( 'NONE', ( #61, #652, #882, #910 ) ) ;
#626 = DIRECTION ( 'NONE',  ( 0.000000000000000000, 1.000000000000000000, 1.000802005371233895E-16 ) ) ;
#627 = ADVANCED_FACE ( 'NONE', ( #820 ), #888, .F. ) ;
#628 = CARTESIAN_POINT ( 'NONE',  ( 95.00000000000000000, 1.500000000000000000, -4.500000000000000000 ) ) ;
#629 = EDGE_LOOP ( 'NONE', ( #693, #982, #960, #6 ) ) ;
#630 = DIRECTION ( 'NONE',  ( 0.000000000000000000, -1.275531967630005245E-16, 1.000000000000000000 ) ) ;
#631 = ORIENTED_EDGE ( 'NONE', *, *, #270, .F. ) ;
#632 = AXIS2_PLACEMENT_3D ( 'NONE', #892, #25, #173 ) ;
#633 = DIRECTION ( 'NONE',  ( 0.000000000000000000, 1.000000000000000000, 9.637352644315598941E-17 ) ) ;
#634 = AXIS2_PLACEMENT_3D ( 'NONE', #145, #626, #158 ) ;
#635 = VECTOR ( 'NONE', #912, 1000.000000000000000 ) ;
#636 = ORIENTED_EDGE ( 'NONE', *, *, #387, .F. ) ;
#637 = ORIENTED_EDGE ( 'NONE', *, *, #580, .T. ) ;
#638 = DIRECTION ( 'NONE',  ( 0.000000000000000000, 1.000000000000000000, 1.334402673828311860E-16 ) ) ;
#639 = EDGE_LOOP ( 'NONE', ( #432, #471, #840, #1032 ) ) ;
#640 = ADVANCED_FACE ( 'NONE', ( #386 ), #538, .F. ) ;
#641 = ORIENTED_EDGE ( 'NONE', *, *, #686, .T. ) ;
#642 = CARTESIAN_POINT ( 'NONE',  ( 75.00000000000000000, 2.750000000000000000, -4.500000000000000000 ) ) ;
#643 = ORIENTED_EDGE ( 'NONE', *, *, #517, .T. ) ;
#644 = ORIENTED_EDGE ( 'NONE', *, *, #907, .T. ) ;
#645 = AXIS2_PLACEMENT_3D ( 'NONE', #498, #979, #573 ) ;
#646 = CARTESIAN_POINT ( 'NONE',  ( 95.00000000000000000, 2.750000000000000000, 4.500000000000000000 ) ) ;
#647 = CIRCLE ( 'NONE', #214, 0.7499999999999997780 ) ;
#648 = DIRECTION ( 'NONE',  ( -1.000000000000000000, 0.000000000000000000, 0.000000000000000000 ) ) ;
#649 = ORIENTED_EDGE ( 'NONE', *, *, #619, .F. ) ;
#650 = VECTOR ( 'NONE', #827, 1000.000000000000000 ) ;
#651 = ADVANCED_FACE ( 'NONE', ( #17 ), #326, .F. ) ;
#652 = ORIENTED_EDGE ( 'NONE', *, *, #959, .T. ) ;
#653 = APPLICATION_CONTEXT ( 'automotive_design' ) ;
#654 = DIRECTION ( 'NONE',  ( 0.000000000000000000, 0.7071067811865480168, -0.7071067811865470176 ) ) ;
#655 = LINE ( 'NONE', #487, #666 ) ;
#656 = ORIENTED_EDGE ( 'NONE', *, *, #580, .F. ) ;
#657 = FACE_BOUND ( 'NONE', #454, .T. ) ;
#658 = EDGE_CURVE ( 'NONE', #245, #380, #1, .T. ) ;
#659 = CARTESIAN_POINT ( 'NONE',  ( 75.00000000000000000, 1.500000000000000000, 4.500000000000000000 ) ) ;
#660 = VERTEX_POINT ( 'NONE', #970 ) ;
#661 = CYLINDRICAL_SURFACE ( 'NONE', #883, 1.699999999999999956 ) ;
#662 = DIRECTION ( 'NONE',  ( 0.000000000000000000, 1.000000000000000000, 1.275531967630009929E-16 ) ) ;
#663 = EDGE_LOOP ( 'NONE', ( #797, #828, #986, #747 ) ) ;
#664 = EDGE_CURVE ( 'NONE', #121, #732, #940, .T. ) ;
#665 = AXIS2_PLACEMENT_3D ( 'NONE', #514, #288, #1013 ) ;
#666 = VECTOR ( 'NONE', #795, 1000.000000000000000 ) ;
#667 = FACE_OUTER_BOUND ( 'NONE', #639, .T. ) ;
#668 = DIRECTION ( 'NONE',  ( 0.000000000000000000, 1.000000000000000000, 1.334402673828311860E-16 ) ) ;
#669 = DIRECTION ( 'NONE',  ( 0.000000000000000000, 1.000000000000000000, 1.275531967630004013E-16 ) ) ;
#670 = ORIENTED_EDGE ( 'NONE', *, *, #973, .F. ) ;
#671 = EDGE_CURVE ( 'NONE', #890, #546, #174, .T. ) ;
#672 = FACE_OUTER_BOUND ( 'NONE', #726, .T. ) ;
#673 = DIRECTION ( 'NONE',  ( 8.659560562355029001E-17, -0.7071067811865400232, 0.7071067811865550112 ) ) ;
#674 = DIRECTION ( 'NONE',  ( 0.000000000000000000, -1.000000000000000000, 0.000000000000000000 ) ) ;
#675 = ORIENTED_EDGE ( 'NONE', *, *, #4, .F. ) ;
#676 = DIRECTION ( 'NONE',  ( 0.000000000000000000, -0.7071067811865480168, 0.7071067811865470176 ) ) ;
#677 = DIRECTION ( 'NONE',  ( 0.000000000000000000, 9.486239600274920215E-17, -1.000000000000000000 ) ) ;
#678 = DIRECTION ( 'NONE',  ( -1.000000000000000000, 0.000000000000000000, 0.000000000000000000 ) ) ;
#679 = DIRECTION ( 'NONE',  ( 0.000000000000000000, 1.000000000000000000, 1.000802005371233895E-16 ) ) ;
#680 = CIRCLE ( 'NONE', #612, 1.699999999999999956 ) ;
#681 = AXIS2_PLACEMENT_3D ( 'NONE', #770, #356, #362 ) ;
#682 = DIRECTION ( 'NONE',  ( 0.000000000000000000, -0.7071067811865391350, -0.7071067811865560104 ) ) ;
#683 = AXIS2_PLACEMENT_3D ( 'NONE', #928, #1014, #854 ) ;
#684 = EDGE_CURVE ( 'NONE', #660, #425, #655, .T. ) ;
#685 = FACE_OUTER_BOUND ( 'NONE', #476, .T. ) ;
#686 = EDGE_CURVE ( 'NONE', #534, #138, #906, .T. ) ;
#687 = DIRECTION ( 'NONE',  ( 0.000000000000000000, 1.000000000000000000, 1.334402673828311860E-16 ) ) ;
#688 = DIRECTION ( 'NONE',  ( 1.000000000000000000, 0.000000000000000000, 0.000000000000000000 ) ) ;
#689 = CARTESIAN_POINT ( 'NONE',  ( 67.50000000000000000, 0.8499999999999999778, -1.699999999999999956 ) ) ;
#690 = CARTESIAN_POINT ( 'NONE',  ( 20.00000000000000000, -3.250000000000000000, -4.500000000000000000 ) ) ;
#691 = EDGE_CURVE ( 'NONE', #825, #28, #114, .T. ) ;
#692 = CARTESIAN_POINT ( 'NONE',  ( 47.50000000000000000, -3.250000000000000000, 6.052711384202569938E-16 ) ) ;
#693 = ORIENTED_EDGE ( 'NONE', *, *, #807, .T. ) ;
#694 = CARTESIAN_POINT ( 'NONE',  ( 95.00000000000000000, 0.7500000000000000000, -4.500000000000000000 ) ) ;
#695 = CARTESIAN_POINT ( 'NONE',  ( 47.50000000000000000, -2.949999999999999734, 1.699999999999999956 ) ) ;
#696 = PLANE ( 'NONE',  #99 ) ;
#697 = CLOSED_SHELL ( 'NONE', ( #640, #651, #117, #313, #394, #477, #223, #299, #997, #372, #763, #9, #495, #705, #148, #278, #731, #935, #256, #568, #38, #978, #249, #605, #981, #769, #180, #529, #541, #209, #951, #34, #627, #341 ) ) ;
#698 = AXIS2_PLACEMENT_3D ( 'NONE', #847, #593, #678 ) ;
#699 = AXIS2_PLACEMENT_3D ( 'NONE', #115, #662, #41 ) ;
#700 = EDGE_LOOP ( 'NONE', ( #995, #86, #644, #675 ) ) ;
#701 = CYLINDRICAL_SURFACE ( 'NONE', #782, 3.250000000000000000 ) ;
#702 = LINE ( 'NONE', #871, #365 ) ;
#703 = CARTESIAN_POINT ( 'NONE',  ( 20.00000000000000000, 3.250000000000000000, -4.000000000000000000 ) ) ;
#704 = ORIENTED_EDGE ( 'NONE', *, *, #465, .T. ) ;
#705 = ADVANCED_FACE ( 'NONE', ( #156 ), #741, .F. ) ;
#706 = EDGE_LOOP ( 'NONE', ( #504, #1035, #586, #144 ) ) ;
#707 = FACE_OUTER_BOUND ( 'NONE', #614, .T. ) ;
#708 = CARTESIAN_POINT ( 'NONE',  ( 27.50000000000000000, 3.250000000000000000, 3.250000000000000000 ) ) ;
#709 = EDGE_LOOP ( 'NONE', ( #166, #382 ) ) ;
#710 = DIRECTION ( 'NONE',  ( 0.000000000000000000, -2.168404344971008868E-16, 1.000000000000000000 ) ) ;
#711 = ORIENTED_EDGE ( 'NONE', *, *, #691, .F. ) ;
#712 = CARTESIAN_POINT ( 'NONE',  ( 75.00000000000000000, 0.7500000000000000000, 4.500000000000000000 ) ) ;
#713 = LINE ( 'NONE', #85, #831 ) ;
#714 = VERTEX_POINT ( 'NONE', #93 ) ;
#715 = ORIENTED_EDGE ( 'NONE', *, *, #528, .F. ) ;
#716 = AXIS2_PLACEMENT_3D ( 'NONE', #576, #922, #520 ) ;
#717 = CARTESIAN_POINT ( 'NONE',  ( 47.50000000000000000, 0.8499999999999999778, -1.699999999999999956 ) ) ;
#718 = EDGE_CURVE ( 'NONE', #170, #10, #781, .T. ) ;
#719 = AXIS2_PLACEMENT_3D ( 'NONE', #39, #354, #453 ) ;
#720 = CARTESIAN_POINT ( 'NONE',  ( 27.50000000000000000, 3.250000000000000000, -3.250000000000000000 ) ) ;
#721 = EDGE_CURVE ( 'NONE', #791, #417, #16, .T. ) ;
#722 = VECTOR ( 'NONE', #143, 1000.000000000000000 ) ;
#723 = ORIENTED_EDGE ( 'NONE', *, *, #686, .F. ) ;
#724 = EDGE_LOOP ( 'NONE', ( #37, #406, #961, #23 ) ) ;
#725 = DIRECTION ( 'NONE',  ( 0.000000000000000000, 1.000000000000000000, 9.637352644315598941E-17 ) ) ;
#726 = EDGE_LOOP ( 'NONE', ( #1020, #254, #967, #570 ) ) ;
#727 = ORIENTED_EDGE ( 'NONE', *, *, #838, .T. ) ;
#728 = DIRECTION ( 'NONE',  ( 1.000000000000000000, 0.000000000000000000, 0.000000000000000000 ) ) ;
#729 = FACE_OUTER_BOUND ( 'NONE', #700, .T. ) ;
#730 = ORIENTED_EDGE ( 'NONE', *, *, #450, .F. ) ;
#731 = ADVANCED_FACE ( 'NONE', ( #404, #338, #310, #729 ), #736, .F. ) ;
#732 = VERTEX_POINT ( 'NONE', #381 ) ;
#733 = VECTOR ( 'NONE', #1005, 1000.000000000000000 ) ;
#734 = PRESENTATION_STYLE_ASSIGNMENT (( #420 ) ) ;
#735 = CIRCLE ( 'NONE', #634, 3.250000000000000000 ) ;
#736 = PLANE ( 'NONE',  #852 ) ;
#737 = ORIENTED_EDGE ( 'NONE', *, *, #619, .T. ) ;
#738 = AXIS2_PLACEMENT_3D ( 'NONE', #271, #917, #844 ) ;
#739 = CARTESIAN_POINT ( 'NONE',  ( 27.50000000000000000, -3.250000000000000000, 3.054564736714965084E-15 ) ) ;
#740 = FACE_OUTER_BOUND ( 'NONE', #556, .T. ) ;
#741 = CYLINDRICAL_SURFACE ( 'NONE', #968, 1.699999999999999956 ) ;
#742 = ORIENTED_EDGE ( 'NONE', *, *, #60, .F. ) ;
#743 = CYLINDRICAL_SURFACE ( 'NONE', #716, 3.250000000000000000 ) ;
#744 = DIRECTION ( 'NONE',  ( 0.000000000000000000, -1.275531967630005245E-16, 1.000000000000000000 ) ) ;
#745 = DIRECTION ( 'NONE',  ( 0.000000000000000000, -1.275531967630005245E-16, 1.000000000000000000 ) ) ;
#746 = EDGE_LOOP ( 'NONE', ( #160, #269, #480, #385 ) ) ;
#747 = ORIENTED_EDGE ( 'NONE', *, *, #789, .F. ) ;
#748 =( NAMED_UNIT ( * ) PLANE_ANGLE_UNIT ( ) SI_UNIT ( $, .RADIAN. ) );
#749 = LINE ( 'NONE', #659, #281 ) ;
#750 = EDGE_LOOP ( 'NONE', ( #991, #12, #437, #715 ) ) ;
#751 = EDGE_CURVE ( 'NONE', #7, #253, #305, .T. ) ;
#752 = VECTOR ( 'NONE', #68, 1000.000000000000114 ) ;
#753 = VECTOR ( 'NONE', #1028, 1000.000000000000000 ) ;
#754 = AXIS2_PLACEMENT_3D ( 'NONE', #774, #858, #446 ) ;
#755 = FACE_BOUND ( 'NONE', #468, .T. ) ;
#756 = DIRECTION ( 'NONE',  ( 0.000000000000000000, 1.000000000000000000, 1.000802005371233895E-16 ) ) ;
#757 = CARTESIAN_POINT ( 'NONE',  ( 27.50000000000000000, 0.8499999999999999778, 3.449696195131904566E-15 ) ) ;
#758 = ORIENTED_EDGE ( 'NONE', *, *, #658, .F. ) ;
#759 = DIRECTION ( 'NONE',  ( 0.000000000000000000, -1.000000000000000000, 2.668805347656630130E-16 ) ) ;
#760 = CARTESIAN_POINT ( 'NONE',  ( 75.00000000000000000, -3.250000000000000000, -4.500000000000000000 ) ) ;
#761 = CARTESIAN_POINT ( 'NONE',  ( 27.50000000000000000, 0.8499999999999999778, 3.449696195131904566E-15 ) ) ;
#762 = EDGE_LOOP ( 'NONE', ( #810, #179, #57, #559 ) ) ;
#763 = ADVANCED_FACE ( 'NONE', ( #227 ), #545, .F. ) ;
#764 = DIRECTION ( 'NONE',  ( 0.000000000000000000, 1.000000000000000000, 9.637352644315598941E-17 ) ) ;
#765 = DIRECTION ( 'NONE',  ( 0.000000000000000000, 0.000000000000000000, -1.000000000000000000 ) ) ;
#766 = CARTESIAN_POINT ( 'NONE',  ( 27.50000000000000000, -3.250000000000000000, 2.000000000000000000 ) ) ;
#767 = CARTESIAN_POINT ( 'NONE',  ( 47.50000000000000000, 3.250000000000000000, -1.699999999999999956 ) ) ;
#768 = CIRCLE ( 'NONE', #363, 1.699999999999999956 ) ;
#769 = ADVANCED_FACE ( 'NONE', ( #594 ), #347, .F. ) ;
#770 = CARTESIAN_POINT ( 'NONE',  ( 27.50000000000000000, 3.250000000000000000, 3.680992658595479897E-15 ) ) ;
#771 = CARTESIAN_POINT ( 'NONE',  ( 27.50000000000000000, 3.250000000000000000, 3.680992658595479897E-15 ) ) ;
#772 = CYLINDRICAL_SURFACE ( 'NONE', #150, 1.699999999999999956 ) ;
#773 = DIRECTION ( 'NONE',  ( 0.000000000000000000, -1.000000000000000000, 0.000000000000000000 ) ) ;
#774 = CARTESIAN_POINT ( 'NONE',  ( 95.00000000000000000, 0.7500000000000000000, -4.500000000000000000 ) ) ;
#775 = FACE_OUTER_BOUND ( 'NONE', #489, .T. ) ;
#776 = ORIENTED_EDGE ( 'NONE', *, *, #893, .T. ) ;
#777 = LINE ( 'NONE', #947, #866 ) ;
#778 = DIRECTION ( 'NONE',  ( 0.000000000000000000, -1.334402673828313093E-16, 1.000000000000000000 ) ) ;
#779 = CARTESIAN_POINT ( 'NONE',  ( 27.50000000000000000, 3.250000000000000000, -1.699999999999999956 ) ) ;
#780 = VERTEX_POINT ( 'NONE', #990 ) ;
#781 = LINE ( 'NONE', #408, #722 ) ;
#782 = AXIS2_PLACEMENT_3D ( 'NONE', #621, #229, #942 ) ;
#783 = AXIS2_PLACEMENT_3D ( 'NONE', #574, #70, #630 ) ;
#784 = ORIENTED_EDGE ( 'NONE', *, *, #172, .F. ) ;
#785 = DIRECTION ( 'NONE',  ( 0.000000000000000000, -1.334402673828313093E-16, 1.000000000000000000 ) ) ;
#786 =( GEOMETRIC_REPRESENTATION_CONTEXT ( 3 ) GLOBAL_UNCERTAINTY_ASSIGNED_CONTEXT ( ( #502 ) ) GLOBAL_UNIT_ASSIGNED_CONTEXT ( ( #622, #542, #463 ) ) REPRESENTATION_CONTEXT ( 'NONE', 'WORKASPACE' ) );
#787 = CARTESIAN_POINT ( 'NONE',  ( 47.50000000000000000, -2.949999999999999734, 6.341831963532040088E-16 ) ) ;
#788 = ORIENTED_EDGE ( 'NONE', *, *, #331, .T. ) ;
#789 = EDGE_CURVE ( 'NONE', #905, #171, #909, .T. ) ;
#790 = DIRECTION ( 'NONE',  ( 0.000000000000000000, -1.000000000000000000, 0.000000000000000000 ) ) ;
#791 = VERTEX_POINT ( 'NONE', #198 ) ;
#792 = CARTESIAN_POINT ( 'NONE',  ( 49.20000000000000284, 0.8499999999999999778, 1.000402596837195884E-15 ) ) ;
#793 = CARTESIAN_POINT ( 'NONE',  ( 67.50000000000000000, 3.250000000000000000, -1.217594537993936087E-15 ) ) ;
#794 = VERTEX_POINT ( 'NONE', #589 ) ;
#795 = DIRECTION ( 'NONE',  ( 0.000000000000000000, -1.927470528863119788E-16, 1.000000000000000000 ) ) ;
#796 = EDGE_CURVE ( 'NONE', #780, #976, #83, .T. ) ;
#797 = ORIENTED_EDGE ( 'NONE', *, *, #880, .F. ) ;
#798 = CARTESIAN_POINT ( 'NONE',  ( 95.00000000000000000, 0.7500000000000000000, -3.750000000000000000 ) ) ;
#799 = DIRECTION ( 'NONE',  ( 0.000000000000000000, -1.000000000000000000, 0.000000000000000000 ) ) ;
#800 = ORIENTED_EDGE ( 'NONE', *, *, #988, .T. ) ;
#801 = EDGE_LOOP ( 'NONE', ( #87, #881 ) ) ;
#802 = AXIS2_PLACEMENT_3D ( 'NONE', #146, #668, #501 ) ;
#803 = EDGE_CURVE ( 'NONE', #425, #84, #106, .T. ) ;
#804 = AXIS2_PLACEMENT_3D ( 'NONE', #130, #848, #136 ) ;
#805 = ORIENTED_EDGE ( 'NONE', *, *, #373, .T. ) ;
#806 = ORIENTED_EDGE ( 'NONE', *, *, #373, .F. ) ;
#807 = EDGE_CURVE ( 'NONE', #918, #309, #824, .T. ) ;
#808 = CARTESIAN_POINT ( 'NONE',  ( 20.00000000000000000, 2.750000000000000000, 4.500000000000000000 ) ) ;
#809 = EDGE_LOOP ( 'NONE', ( #42, #776, #375, #153 ) ) ;
#810 = ORIENTED_EDGE ( 'NONE', *, *, #592, .F. ) ;
#811 = APPLICATION_PROTOCOL_DEFINITION ( 'draft international standard', 'automotive_design', 1998, #653 ) ;
#812 = LINE ( 'NONE', #92, #360 ) ;
#813 = DIRECTION ( 'NONE',  ( 1.000000000000000000, 0.000000000000000000, 0.000000000000000000 ) ) ;
#814 = ORIENTED_EDGE ( 'NONE', *, *, #442, .T. ) ;
#815 = EDGE_CURVE ( 'NONE', #335, #890, #183, .T. ) ;
#816 = ORIENTED_EDGE ( 'NONE', *, *, #126, .F. ) ;
#817 = VECTOR ( 'NONE', #512, 1000.000000000000000 ) ;
#818 =( LENGTH_UNIT ( ) NAMED_UNIT ( * ) SI_UNIT ( .MILLI., .METRE. ) );
#819 = AXIS2_PLACEMENT_3D ( 'NONE', #597, #921, #369 ) ;
#820 = FACE_OUTER_BOUND ( 'NONE', #590, .T. ) ;
#821 = VERTEX_POINT ( 'NONE', #421 ) ;
#822 = VECTOR ( 'NONE', #36, 1000.000000000000000 ) ;
#823 = LINE ( 'NONE', #415, #1015 ) ;
#824 = LINE ( 'NONE', #351, #635 ) ;
#825 = VERTEX_POINT ( 'NONE', #994 ) ;
#826 = EDGE_CURVE ( 'NONE', #905, #344, #566, .T. ) ;
#827 = DIRECTION ( 'NONE',  ( 0.000000000000000000, -1.000000000000000000, 2.668805347656624706E-16 ) ) ;
#828 = ORIENTED_EDGE ( 'NONE', *, *, #966, .T. ) ;
#829 = CARTESIAN_POINT ( 'NONE',  ( 20.00000000000000000, 3.250000000000000000, -10.56272104409404022 ) ) ;
#830 = DIRECTION ( 'NONE',  ( 0.000000000000000000, 0.000000000000000000, 1.000000000000000000 ) ) ;
#831 = VECTOR ( 'NONE', #543, 1000.000000000000000 ) ;
#832 = CARTESIAN_POINT ( 'NONE',  ( 95.00000000000000000, 3.250000000000000000, 4.000000000000000000 ) ) ;
#833 = ORIENTED_EDGE ( 'NONE', *, *, #26, .T. ) ;
#834 = CIRCLE ( 'NONE', #182, 3.250000000000000000 ) ;
#835 = AXIS2_PLACEMENT_3D ( 'NONE', #492, #860, #710 ) ;
#836 = CARTESIAN_POINT ( 'NONE',  ( 67.50000000000000000, 3.250000000000000000, 3.250000000000000000 ) ) ;
#837 = CARTESIAN_POINT ( 'NONE',  ( 67.50000000000000000, -3.250000000000000000, -1.844022459874449914E-15 ) ) ;
#838 = EDGE_CURVE ( 'NONE', #28, #825, #1017, .T. ) ;
#839 = DIRECTION ( 'NONE',  ( 0.000000000000000000, 0.000000000000000000, 1.000000000000000000 ) ) ;
#840 = ORIENTED_EDGE ( 'NONE', *, *, #587, .T. ) ;
#841 = DIRECTION ( 'NONE',  ( 0.000000000000000000, 1.000000000000000000, 0.000000000000000000 ) ) ;
#842 = CARTESIAN_POINT ( 'NONE',  ( 27.50000000000000000, 0.8499999999999999778, -1.699999999999999956 ) ) ;
#843 = CARTESIAN_POINT ( 'NONE',  ( 67.50000000000000000, -3.250000000000000000, -1.844022459874449914E-15 ) ) ;
#844 = DIRECTION ( 'NONE',  ( 0.000000000000000000, 0.000000000000000000, 1.000000000000000000 ) ) ;
#845 = EDGE_CURVE ( 'NONE', #98, #591, #412, .T. ) ;
#846 = DIRECTION ( 'NONE',  ( 0.000000000000000000, 2.668805347656630130E-16, 1.000000000000000000 ) ) ;
#847 = CARTESIAN_POINT ( 'NONE',  ( 95.00000000000000000, 3.250000000000000000, -4.000000000000000000 ) ) ;
#848 = DIRECTION ( 'NONE',  ( 0.000000000000000000, -2.668805347656624706E-16, -1.000000000000000000 ) ) ;
#849 = VECTOR ( 'NONE', #958, 1000.000000000000000 ) ;
#850 = CIRCLE ( 'NONE', #481, 2.000000000000000000 ) ;
#851 = DIRECTION ( 'NONE',  ( 0.000000000000000000, 1.000000000000000000, 1.334402673828311860E-16 ) ) ;
#852 = AXIS2_PLACEMENT_3D ( 'NONE', #334, #899, #220 ) ;
#853 = FACE_OUTER_BOUND ( 'NONE', #706, .T. ) ;
#854 = DIRECTION ( 'NONE',  ( 0.000000000000000000, -1.334402673828313093E-16, 1.000000000000000000 ) ) ;
#855 = FACE_OUTER_BOUND ( 'NONE', #629, .T. ) ;
#856 = ORIENTED_EDGE ( 'NONE', *, *, #161, .T. ) ;
#857 = DIRECTION ( 'NONE',  ( 0.000000000000000000, -1.000802005371234881E-16, 1.000000000000000000 ) ) ;
#858 = DIRECTION ( 'NONE',  ( -1.000000000000000000, 0.000000000000000000, 0.000000000000000000 ) ) ;
#859 = VERTEX_POINT ( 'NONE', #27 ) ;
#860 = DIRECTION ( 'NONE',  ( 0.000000000000000000, 1.000000000000000000, 2.168404344971010101E-16 ) ) ;
#861 = EDGE_LOOP ( 'NONE', ( #814, #107 ) ) ;
#862 = FACE_BOUND ( 'NONE', #709, .T. ) ;
#863 = FACE_OUTER_BOUND ( 'NONE', #75, .T. ) ;
#864 = ORIENTED_EDGE ( 'NONE', *, *, #96, .F. ) ;
#865 = CARTESIAN_POINT ( 'NONE',  ( 47.50000000000000000, 3.250000000000000000, 1.231699060300770031E-15 ) ) ;
#866 = VECTOR ( 'NONE', #633, 1000.000000000000000 ) ;
#867 = AXIS2_PLACEMENT_3D ( 'NONE', #552, #894, #178 ) ;
#868 = ORIENTED_EDGE ( 'NONE', *, *, #71, .T. ) ;
#869 = DIRECTION ( 'NONE',  ( 0.000000000000000000, 9.637352644315598941E-17, -1.000000000000000000 ) ) ;
#870 = VECTOR ( 'NONE', #140, 1000.000000000000000 ) ;
#871 = CARTESIAN_POINT ( 'NONE',  ( 47.50000000000000000, 3.250000000000000000, 1.699999999999999956 ) ) ;
#872 = DIRECTION ( 'NONE',  ( 0.000000000000000000, -0.7071067811865474617, -0.7071067811865474617 ) ) ;
#873 = VERTEX_POINT ( 'NONE', #343 ) ;
#874 = EDGE_CURVE ( 'NONE', #821, #319, #598, .T. ) ;
#875 = CARTESIAN_POINT ( 'NONE',  ( 75.00000000000000000, -6.750000000000000000, -10.67157065585961995 ) ) ;
#876 = ORIENTED_EDGE ( 'NONE', *, *, #815, .F. ) ;
#877 = DIRECTION ( 'NONE',  ( 0.000000000000000000, -1.000000000000000000, -9.637352644315598941E-17 ) ) ;
#878 = DIRECTION ( 'NONE',  ( 0.000000000000000000, 0.000000000000000000, -1.000000000000000000 ) ) ;
#879 = ORIENTED_EDGE ( 'NONE', *, *, #518, .F. ) ;
#880 = EDGE_CURVE ( 'NONE', #344, #905, #33, .T. ) ;
#881 = ORIENTED_EDGE ( 'NONE', *, *, #992, .F. ) ;
#882 = ORIENTED_EDGE ( 'NONE', *, *, #205, .T. ) ;
#883 = AXIS2_PLACEMENT_3D ( 'NONE', #21, #187, #337 ) ;
#884 = ORIENTED_EDGE ( 'NONE', *, *, #718, .F. ) ;
#885 = CIRCLE ( 'NONE', #819, 1.699999999999999956 ) ;
#886 = EDGE_CURVE ( 'NONE', #873, #794, #440, .T. ) ;
#887 = CIRCLE ( 'NONE', #1002, 2.000000000000000000 ) ;
#888 = CONICAL_SURFACE ( 'NONE', #318, 2.000000000000000000, 0.7853981633974589371 ) ;
#889 = CIRCLE ( 'NONE', #398, 3.250000000000000000 ) ;
#890 = VERTEX_POINT ( 'NONE', #268 ) ;
#891 = ORIENTED_EDGE ( 'NONE', *, *, #826, .T. ) ;
#892 = CARTESIAN_POINT ( 'NONE',  ( 67.50000000000000000, -3.250000000000000000, -1.844022459874449914E-15 ) ) ;
#893 = EDGE_CURVE ( 'NONE', #235, #170, #109, .T. ) ;
#894 = DIRECTION ( 'NONE',  ( 1.000000000000000000, 0.000000000000000000, 0.000000000000000000 ) ) ;
#895 = ORIENTED_EDGE ( 'NONE', *, *, #186, .T. ) ;
#896 = ORIENTED_EDGE ( 'NONE', *, *, #603, .T. ) ;
#897 = CARTESIAN_POINT ( 'NONE',  ( 0.000000000000000000, 0.000000000000000000, 0.000000000000000000 ) ) ;
#898 = CARTESIAN_POINT ( 'NONE',  ( 75.00000000000000000, 0.7500000000000000000, -3.750000000000000000 ) ) ;
#899 = DIRECTION ( 'NONE',  ( 0.000000000000000000, -1.000000000000000000, -9.637352644315598941E-17 ) ) ;
#900 = EDGE_LOOP ( 'NONE', ( #311, #399, #964, #69 ) ) ;
#901 = FACE_BOUND ( 'NONE', #228, .T. ) ;
#902 = SURFACE_SIDE_STYLE ('',( #333 ) ) ;
#903 = CONICAL_SURFACE ( 'NONE', #443, 2.000000000000000000, 0.7853981633974602694 ) ;
#904 = DIRECTION ( 'NONE',  ( 0.000000000000000000, 0.000000000000000000, 1.000000000000000000 ) ) ;
#905 = VERTEX_POINT ( 'NONE', #507 ) ;
#906 = CIRCLE ( 'NONE', #616, 0.7499999999999997780 ) ;
#907 = EDGE_CURVE ( 'NONE', #199, #327, #1001, .T. ) ;
#908 = DIRECTION ( 'NONE',  ( 0.000000000000000000, 1.000000000000000000, 9.637352644315598941E-17 ) ) ;
#909 = LINE ( 'NONE', #499, #445 ) ;
#910 = ORIENTED_EDGE ( 'NONE', *, *, #691, .T. ) ;
#911 = CARTESIAN_POINT ( 'NONE',  ( 47.50000000000000000, 0.8499999999999999778, -3.250000000000000000 ) ) ;
#912 = DIRECTION ( 'NONE',  ( -1.000000000000000000, 0.000000000000000000, 0.000000000000000000 ) ) ;
#913 = EDGE_LOOP ( 'NONE', ( #244, #409 ) ) ;
#914 = EDGE_CURVE ( 'NONE', #91, #859, #924, .T. ) ;
#915 = DIRECTION ( 'NONE',  ( -1.000000000000000000, 0.000000000000000000, 0.000000000000000000 ) ) ;
#916 = CIRCLE ( 'NONE', #410, 1.699999999999999956 ) ;
#917 = DIRECTION ( 'NONE',  ( 0.000000000000000000, 1.000000000000000000, 0.000000000000000000 ) ) ;
#918 = VERTEX_POINT ( 'NONE', #46 ) ;
#919 = AXIS2_PLACEMENT_3D ( 'NONE', #792, #877, #301 ) ;
#920 = VECTOR ( 'NONE', #282, 1000.000000000000000 ) ;
#921 = DIRECTION ( 'NONE',  ( 0.000000000000000000, -1.000000000000000000, 0.000000000000000000 ) ) ;
#922 = DIRECTION ( 'NONE',  ( 0.000000000000000000, 1.000000000000000000, 1.334402673828311860E-16 ) ) ;
#923 = LINE ( 'NONE', #196, #292 ) ;
#924 = LINE ( 'NONE', #766, #151 ) ;
#925 = EDGE_CURVE ( 'NONE', #157, #918, #749, .T. ) ;
#926 = DIRECTION ( 'NONE',  ( 0.000000000000000000, 0.000000000000000000, -1.000000000000000000 ) ) ;
#927 = FACE_OUTER_BOUND ( 'NONE', #625, .T. ) ;
#928 = CARTESIAN_POINT ( 'NONE',  ( 27.50000000000000000, 3.250000000000000000, 3.680992658595479897E-15 ) ) ;
#929 = DIRECTION ( 'NONE',  ( 0.000000000000000000, -1.334402673828313093E-16, 1.000000000000000000 ) ) ;
#930 = DIRECTION ( 'NONE',  ( 0.000000000000000000, 9.637352644315598941E-17, -1.000000000000000000 ) ) ;
#931 = DIRECTION ( 'NONE',  ( 0.000000000000000000, 0.000000000000000000, 1.000000000000000000 ) ) ;
#932 = EDGE_CURVE ( 'NONE', #138, #7, #987, .T. ) ;
#933 = VECTOR ( 'NONE', #764, 1000.000000000000000 ) ;
#934 = DIRECTION ( 'NONE',  ( 0.000000000000000000, -1.000000000000000000, 0.000000000000000000 ) ) ;
#935 = ADVANCED_FACE ( 'NONE', ( #604 ), #1022, .F. ) ;
#936 = AXIS2_PLACEMENT_3D ( 'NONE', #771, #452, #939 ) ;
#937 = ORIENTED_EDGE ( 'NONE', *, *, #387, .T. ) ;
#938 = DIRECTION ( 'NONE',  ( -1.000000000000000000, 0.000000000000000000, 0.000000000000000000 ) ) ;
#939 = DIRECTION ( 'NONE',  ( 0.000000000000000000, -1.334402673828313093E-16, 1.000000000000000000 ) ) ;
#940 = LINE ( 'NONE', #416, #197 ) ;
#941 = VERTEX_POINT ( 'NONE', #67 ) ;
#942 = DIRECTION ( 'NONE',  ( 0.000000000000000000, -1.334402673828313093E-16, 1.000000000000000000 ) ) ;
#943 = DIRECTION ( 'NONE',  ( 0.000000000000000000, 1.927470528863119788E-16, -1.000000000000000000 ) ) ;
#944 = VERTEX_POINT ( 'NONE', #1006 ) ;
#945 = DIRECTION ( 'NONE',  ( -1.000000000000000000, 0.000000000000000000, 0.000000000000000000 ) ) ;
#946 = ORIENTED_EDGE ( 'NONE', *, *, #161, .F. ) ;
#947 = CARTESIAN_POINT ( 'NONE',  ( 67.50000000000000000, 3.250000000000000000, -1.699999999999999956 ) ) ;
#948 = EDGE_CURVE ( 'NONE', #732, #65, #55, .T. ) ;
#949 = UNCERTAINTY_MEASURE_WITH_UNIT (LENGTH_MEASURE( 1.000000000000000082E-05 ), #818, 'distance_accuracy_value', 'NONE');
#950 = DIRECTION ( 'NONE',  ( 0.000000000000000000, 1.000000000000000000, 1.334402673828311860E-16 ) ) ;
#951 = ADVANCED_FACE ( 'NONE', ( #536 ), #224, .F. ) ;
#952 = ORIENTED_EDGE ( 'NONE', *, *, #122, .T. ) ;
#953 = DIRECTION ( 'NONE',  ( 0.000000000000000000, 1.000000000000000000, 0.000000000000000000 ) ) ;
#954 = AXIS2_PLACEMENT_3D ( 'NONE', #606, #851, #929 ) ;
#955 = VECTOR ( 'NONE', #371, 1000.000000000000000 ) ;
#956 = ORIENTED_EDGE ( 'NONE', *, *, #684, .F. ) ;
#957 = DIRECTION ( 'NONE',  ( 1.000000000000000000, 0.000000000000000000, 0.000000000000000000 ) ) ;
#958 = DIRECTION ( 'NONE',  ( 0.000000000000000000, -0.7071067811865400232, -0.7071067811865550112 ) ) ;
#959 = EDGE_CURVE ( 'NONE', #241, #91, #768, .T. ) ;
#960 = ORIENTED_EDGE ( 'NONE', *, *, #190, .F. ) ;
#961 = ORIENTED_EDGE ( 'NONE', *, *, #172, .T. ) ;
#962 = ORIENTED_EDGE ( 'NONE', *, *, #581, .F. ) ;
#963 = EDGE_LOOP ( 'NONE', ( #876, #952, #1024, #306 ) ) ;
#964 = ORIENTED_EDGE ( 'NONE', *, *, #126, .T. ) ;
#965 = PRESENTATION_LAYER_ASSIGNMENT (  '', '', ( #13 ) ) ;
#966 = EDGE_CURVE ( 'NONE', #344, #232, #213, .T. ) ;
#967 = ORIENTED_EDGE ( 'NONE', *, *, #238, .F. ) ;
#968 = AXIS2_PLACEMENT_3D ( 'NONE', #11, #953, #458 ) ;
#969 = CARTESIAN_POINT ( 'NONE',  ( 47.50000000000000000, 3.250000000000000000, 3.250000000000000000 ) ) ;
#970 = CARTESIAN_POINT ( 'NONE',  ( 75.00000000000000000, -3.250000000000000000, -4.500000000000000000 ) ) ;
#971 = ORIENTED_EDGE ( 'NONE', *, *, #587, .F. ) ;
#972 = ORIENTED_EDGE ( 'NONE', *, *, #603, .F. ) ;
#973 = EDGE_CURVE ( 'NONE', #10, #253, #308, .T. ) ;
#974 = CARTESIAN_POINT ( 'NONE',  ( 20.00000000000000000, 3.250000000000000000, 4.000000000000000000 ) ) ;
#975 = DIRECTION ( 'NONE',  ( -1.000000000000000000, 0.000000000000000000, 0.000000000000000000 ) ) ;
#976 = VERTEX_POINT ( 'NONE', #695 ) ;
#977 = DIRECTION ( 'NONE',  ( 0.000000000000000000, 0.000000000000000000, -1.000000000000000000 ) ) ;
#978 = ADVANCED_FACE ( 'NONE', ( #532 ), #384, .F. ) ;
#979 = DIRECTION ( 'NONE',  ( 0.000000000000000000, 1.000000000000000000, 1.334402673828311860E-16 ) ) ;
#980 = CARTESIAN_POINT ( 'NONE',  ( 75.00000000000000000, 0.7500000000000000000, -4.500000000000000000 ) ) ;
#981 = ADVANCED_FACE ( 'NONE', ( #368 ), #208, .F. ) ;
#982 = ORIENTED_EDGE ( 'NONE', *, *, #450, .T. ) ;
#983 = DIRECTION ( 'NONE',  ( 0.000000000000000000, 1.000000000000000000, 1.275531967630004013E-16 ) ) ;
#984 = CIRCLE ( 'NONE', #462, 2.000000000000000000 ) ;
#985 = CARTESIAN_POINT ( 'NONE',  ( 47.50000000000000000, -2.949999999999999734, 6.341831963532040088E-16 ) ) ;
#986 = ORIENTED_EDGE ( 'NONE', *, *, #134, .T. ) ;
#987 = CIRCLE ( 'NONE', #165, 0.7499999999999997780 ) ;
#988 = EDGE_CURVE ( 'NONE', #195, #571, #297, .T. ) ;
#989 = PLANE ( 'NONE',  #426 ) ;
#990 = CARTESIAN_POINT ( 'NONE',  ( 47.50000000000000000, -2.949999999999999734, -1.699999999999999956 ) ) ;
#991 = ORIENTED_EDGE ( 'NONE', *, *, #517, .F. ) ;
#992 = EDGE_CURVE ( 'NONE', #944, #32, #889, .T. ) ;
#993 = PLANE ( 'NONE',  #698 ) ;
#994 = CARTESIAN_POINT ( 'NONE',  ( 27.50000000000000000, 0.8499999999999999778, 1.699999999999999956 ) ) ;
#995 = ORIENTED_EDGE ( 'NONE', *, *, #948, .T. ) ;
#996 = CARTESIAN_POINT ( 'NONE',  ( 95.00000000000000000, 1.500000000000000000, 4.500000000000000000 ) ) ;
#997 = ADVANCED_FACE ( 'NONE', ( #364 ), #302, .F. ) ;
#998 = CARTESIAN_POINT ( 'NONE',  ( 20.00000000000000000, 0.7500000000000000000, -3.750000000000000000 ) ) ;
#999 = PRODUCT_DEFINITION_CONTEXT ( 'detailed design', #653, 'design' ) ;
#1000 = VECTOR ( 'NONE', #101, 1000.000000000000000 ) ;
#1001 = LINE ( 'NONE', #832, #565 ) ;
#1002 = AXIS2_PLACEMENT_3D ( 'NONE', #837, #51, #119 ) ;
#1003 = AXIS2_PLACEMENT_3D ( 'NONE', #600, #674, #839 ) ;
#1004 = CARTESIAN_POINT ( 'NONE',  ( 27.50000000000000000, -3.250000000000000000, -2.000000000000000000 ) ) ;
#1005 = DIRECTION ( 'NONE',  ( -1.000000000000000000, 0.000000000000000000, 0.000000000000000000 ) ) ;
#1006 = CARTESIAN_POINT ( 'NONE',  ( 67.50000000000000000, 3.250000000000000000, -3.250000000000000000 ) ) ;
#1007 = DIRECTION ( 'NONE',  ( 0.000000000000000000, -2.168404344971008868E-16, 1.000000000000000000 ) ) ;
#1008 = CARTESIAN_POINT ( 'NONE',  ( 67.50000000000000000, 0.8499999999999999778, -1.448891001457510038E-15 ) ) ;
#1009 = PRODUCT_RELATED_PRODUCT_CATEGORY ( 'part', '', ( #242 ) ) ;
#1010 = DIRECTION ( 'NONE',  ( 0.000000000000000000, -1.334402673828313093E-16, 1.000000000000000000 ) ) ;
#1011 = CARTESIAN_POINT ( 'NONE',  ( 47.50000000000000000, 3.250000000000000000, 1.231699060300770031E-15 ) ) ;
#1012 = ORIENTED_EDGE ( 'NONE', *, *, #880, .T. ) ;
#1013 = DIRECTION ( 'NONE',  ( 0.000000000000000000, 0.000000000000000000, -1.000000000000000000 ) ) ;
#1014 = DIRECTION ( 'NONE',  ( 0.000000000000000000, 1.000000000000000000, 1.334402673828311860E-16 ) ) ;
#1015 = VECTOR ( 'NONE', #908, 1000.000000000000000 ) ;
#1016 = AXIS2_PLACEMENT_3D ( 'NONE', #996, #359, #374 ) ;
#1017 = CIRCLE ( 'NONE', #513, 1.699999999999999956 ) ;
#1018 = CARTESIAN_POINT ( 'NONE',  ( 27.50000000000000000, -3.250000000000000000, 3.054564736714965084E-15 ) ) ;
#1019 = AXIS2_PLACEMENT_3D ( 'NONE', #875, #648, #76 ) ;
#1020 = ORIENTED_EDGE ( 'NONE', *, *, #353, .T. ) ;
#1021 = CARTESIAN_POINT ( 'NONE',  ( 75.00000000000000000, 1.500000000000000000, -4.500000000000000000 ) ) ;
#1022 = PLANE ( 'NONE',  #549 ) ;
#1023 = LINE ( 'NONE', #303, #509 ) ;
#1024 = ORIENTED_EDGE ( 'NONE', *, *, #186, .F. ) ;
#1025 = CARTESIAN_POINT ( 'NONE',  ( 67.50000000000000000, -3.250000000000000000, -2.000000000000000000 ) ) ;
#1026 = EDGE_CURVE ( 'NONE', #976, #791, #702, .T. ) ;
#1027 = ORIENTED_EDGE ( 'NONE', *, *, #526, .F. ) ;
#1028 = DIRECTION ( 'NONE',  ( -1.000000000000000000, 0.000000000000000000, 0.000000000000000000 ) ) ;
#1029 = DIRECTION ( 'NONE',  ( 0.000000000000000000, -1.000000000000000000, 0.000000000000000000 ) ) ;
#1030 = ORIENTED_EDGE ( 'NONE', *, *, #243, .T. ) ;
#1031 = CARTESIAN_POINT ( 'NONE',  ( 75.00000000000000000, 0.7500000000000000000, -4.500000000000000000 ) ) ;
#1032 = ORIENTED_EDGE ( 'NONE', *, *, #419, .T. ) ;
#1033 = CARTESIAN_POINT ( 'NONE',  ( 20.00000000000000000, 1.500000000000000000, 4.500000000000000000 ) ) ;
#1034 = EDGE_CURVE ( 'NONE', #591, #571, #219, .T. ) ;
#1035 = ORIENTED_EDGE ( 'NONE', *, *, #932, .T. ) ;
#1036 = VECTOR ( 'NONE', #58, 1000.000000000000000 ) ;
ENDSEC;
END-ISO-10303-21;
